<svg xmlns="http://www.w3.org/2000/svg" viewBox="0 0 1000 660"><!-- Natural Earth 1:50m (public domain) via world-atlas@2.0.2; equirectangular, standard parallel 40N, lon -15.0..80.0, lat 14.0..62.0 --><path fill="#2e231d" stroke="#1c1511" stroke-width="0.8" stroke-linejoin="round" d="M717 623l-6 3l-2 2l-2 5l1 4l-3 1l-2 2l-5 3l-3 1l-5 1l-2 2l-5 1l-4 2l-4 3l-2 3l-2 2l-3 1l-5 0l-4 3l-2 2l-5 2l-3 1l-5 0l-3 1l-3 0l-5 0l-3 0l-5 0l-3 0l-3 0l-3 0l-3 0l0 -3l0 -3l-2 -3l0 -4l0 -3l-1 -3l-1 -3l-2 -3l1 -6l1 -5l-1 -5l2 -2l2 -2l0 -3l0 -3l1 -3l2 -3l2 2l3 1l3 -1l4 0l4 -1l3 1l3 1l3 1l3 0l5 0l3 2l3 2l3 -1l1 -4l2 -4l3 -4l2 -4l4 -2l3 -2l4 -2l6 -1l3 0l3 -1l4 -1l5 -1l3 0l3 -1l3 3l1 4l1 3l2 4l1 4l1 3l2 3l1 3l1 3zM905 271l3 1l-2 2l-3 2l-3 3l-3 2l3 2l3 2l3 1l3 1l1 -3l2 -2l2 2l2 2l2 2l3 1l4 1l3 1l-4 2l-2 2l-2 2l-3 -1l-2 2l-2 2l-3 -1l-4 0l-4 1l-2 -2l1 -3l2 -3l-2 -2l-2 -2l-3 3l-4 2l-3 -1l-2 2l0 4l-3 1l-3 1l3 1l-2 2l-2 2l-1 3l-3 1l-3 -1l-4 0l-2 5l3 1l2 2l3 1l-1 4l1 4l2 2l-1 3l-2 4l-2 2l0 4l-3 0l-4 0l-4 -2l-3 1l0 -4l1 -4l-2 -2l-3 -2l-3 -1l-5 -1l-3 -3l-3 -1l-2 -2l-3 -3l-4 -1l-2 -2l-3 -2l-2 -2l-2 -2l-5 -3l-2 -2l-1 -4l-1 -3l-2 -5l-1 -3l-3 -2l-3 0l-3 1l-4 -1l-3 1l-2 -2l-2 -2l0 -3l1 -3l-2 -2l-1 -3l-4 0l-3 -3l-3 -1l-3 -3l-2 2l-3 0l3 3l-3 -1l-2 2l-2 2l-4 1l-3 2l-1 4l0 3l0 3l-6 -1l-5 0l0 -3l0 -3l0 -3l0 -3l0 -4l0 -3l0 -3l0 -3l0 -3l0 -3l0 -4l0 -3l0 -3l0 -3l0 -3l0 -3l3 -1l4 -1l4 -1l3 -2l4 -1l3 0l3 -1l3 -1l3 2l3 1l3 2l3 2l3 2l2 2l3 1l3 2l3 2l2 3l2 2l2 2l2 2l2 3l3 0l4 -1l5 0l4 0l4 0l4 0l3 0l3 -1l3 1l2 2l2 2l2 3l2 3l3 -2l-1 3l0 3l0 4l0 3l3 1l2 3l1 4l1 3l4 1l3 0l4 0l3 1l0 3l3 3l3 1l0 -3l1 -3l3 -2l2 -3l2 -2l3 -2l3 -1l3 -2l2 -2l3 -1l3 -2zM130 143l-3 1l-3 2l-4 -1l-3 -2l-4 0l-3 -2l-4 2l-2 -2l-1 -3l4 -1l3 -2l4 -1l1 -3l0 -3l0 -3l-3 0l-3 1l3 -3l3 -2l3 -1l3 -1l4 1l3 0l-2 -3l1 -3l-1 -3l2 -2l-3 -1l-3 -2l-2 -2l1 -5l3 -2l-3 0l-3 1l-3 1l-4 0l-4 -1l-3 0l2 -4l2 -3l0 -3l-2 -3l4 -2l-3 -1l-3 1l1 -4l-3 2l-1 4l-2 6l-1 -3l2 -3l-1 -3l1 -3l1 -4l2 -2l-4 2l-3 0l-2 -2l4 -2l1 -4l-1 -3l1 -3l-1 -3l4 -1l-1 -3l1 -3l3 1l-1 -3l2 -2l3 1l5 -1l3 0l5 -1l4 0l-1 3l-3 3l-4 2l-2 2l-1 3l5 1l3 -1l3 0l8 0l3 0l2 3l-2 3l-3 6l-2 3l-3 2l-3 0l-3 1l5 0l2 2l-3 1l-3 1l-3 1l-3 -1l8 2l5 -1l4 2l4 3l2 2l1 4l1 3l1 3l2 2l4 1l2 3l3 2l1 3l2 3l-3 1l-3 0l3 0l4 3l2 2l0 4l-3 2l3 1l3 -2l3 0l4 1l4 2l1 4l-1 3l-2 3l-2 2l-3 1l-1 3l-3 1l3 2l4 0l2 3l-4 1l-3 2l-3 1l-3 1l-4 0l-3 0l-3 0l-3 0l-3 -1l-2 2l-4 0l-2 2l-3 -1l-3 0l-3 -1l-5 1l-1 3l-2 3l-4 -2l-3 0l-4 1l-3 2l-2 2l-2 -2l-3 1l4 -2l2 -2l2 -2l4 -4l0 -3l3 0l1 -3l3 0l3 0l4 0l4 -2l2 -2l2 -3l-2 2zM144 20l2 2l0 3l-1 3l-1 -3l-3 -1l2 -3zM97 78l-4 0l-2 -3l3 -1l3 2zM93 50l-2 2l-2 2l-3 3l-3 1l2 -2l-2 -2l2 -2l4 -2l3 -2zM93 62l1 3l4 0l-2 3l-2 -2l-3 0l-3 -2l0 -3l3 -1l2 2zM92 109l-3 0l-2 -2l-2 -2l-3 1l-2 2l-3 -1l-5 -3l4 -2l2 -2l2 -3l2 -2l3 -1l5 -1l3 0l2 3l3 3l-2 2l3 0l1 3l-2 -2l0 3l-2 2l-3 2zM751 499l0 9l-1 3l-3 0l-2 2l0 3l0 3l2 2l-3 1l-2 2l0 3l-1 4l-2 4l0 3l-1 3l-3 0l-4 -1l-4 -1l-5 0l-4 -1l-4 -1l-3 0l-2 -3l-2 -3l-2 -3l-1 -3l-2 -2l-1 -3l3 2l3 1l4 -2l5 -1l3 1l5 0l4 -1l3 -2l1 -3l1 -3l5 -4l2 -3l2 -3l5 -4l1 -4l1 3l0 3zM560 205l-4 0l-3 0l-2 2l-3 1l-3 2l-4 0l-4 1l-6 4l-2 2l-3 1l3 -1l0 -3l-2 2l-2 3l0 3l-2 -2l-3 -1l-3 0l-3 -2l-2 2l-4 -1l-3 0l-5 1l-5 -3l-3 -1l3 0l-2 -2l-3 -1l3 1l3 0l3 0l2 -2l-3 1l-3 -1l-1 -3l-1 -3l1 5l-3 1l-3 0l-6 1l-1 3l-2 3l-3 4l-3 1l-3 0l0 3l1 3l-4 -1l-4 1l-6 1l-2 -3l3 0l0 -3l2 -2l2 -2l1 -3l-1 -3l3 -1l3 1l3 0l3 1l-1 -3l0 -3l-4 -2l0 -3l-2 -2l-2 -2l0 -3l0 -3l-3 -1l-3 -3l-3 0l-3 -2l-3 -2l-3 0l-5 1l-4 1l-3 2l-2 2l-5 1l-5 2l-3 1l-3 -2l-4 0l-6 -1l-3 0l-2 -2l-3 2l-2 -2l-3 -2l-2 -2l1 -4l1 -3l2 -2l1 -3l-1 -3l3 -4l4 -4l2 -2l2 -2l3 -1l2 -3l-2 -2l0 -3l-3 -3l0 -3l0 -3l3 1l3 -2l3 -2l4 0l4 -1l3 0l4 1l3 0l4 1l4 1l3 2l3 0l2 2l3 -2l3 0l3 1l3 0l3 -1l2 3l4 -1l3 0l3 1l2 2l1 -3l0 -3l2 -3l2 -2l3 0l3 -1l3 0l3 1l3 -3l3 0l5 -1l3 0l3 0l3 2l1 3l3 2l-2 2l0 3l0 3l3 0l3 1l3 -1l1 3l2 3l0 3l2 2l3 0l3 0l2 2l3 1l4 -2l3 -1l3 1l2 3l2 2l3 1l3 -1l3 1l3 1l3 1l3 2l3 1l2 2l0 3l-2 2l-2 2l3 1l-3 1l0 3l2 2l0 3l-1 3l-2 2l-5 0l-3 -1l-2 2l-2 2l-2 2l0 3zM747 284l3 0l6 1l3 -1l-1 -5l0 -3l2 -2l5 -1l3 -3l2 -2l2 2l-1 -3l3 -2l4 2l3 1l2 2l4 1l3 1l-1 3l2 2l0 3l-1 3l4 3l3 -1l4 1l3 -1l3 0l3 2l1 3l1 3l2 3l1 6l2 2l3 2l4 3l2 2l3 2l2 2l2 2l4 2l3 2l3 1l3 3l3 2l3 -1l3 2l4 2l-1 3l0 4l-4 1l-4 -2l-2 4l-3 0l-3 1l-2 2l-1 4l-1 3l-1 3l-3 2l-2 2l-4 1l-4 1l-1 3l-1 3l-4 2l-3 1l-4 -2l-3 -1l-4 -1l-2 -3l0 -3l0 -3l0 -4l-1 -3l-4 0l-4 1l-2 -3l-2 -3l-3 -1l-2 -2l-1 -3l-5 -2l-3 0l-3 0l-2 -2l-3 -1l-4 -1l-2 -2l-2 -2l-3 -1l-3 0l-3 2l-4 0l-3 0l-4 2l-3 3l-2 4l-3 1l-3 1l-3 0l0 -5l-1 -3l1 -5l0 -3l0 -3l0 -3l-2 -2l-2 -3l-3 0l0 -4l3 1l0 -3l0 -3l-4 0l-2 2l-1 -3l-1 -3l1 -4l1 -5l3 1l3 0l3 2l3 0l3 0l0 -3l3 0l0 -3l-4 -3l-2 -3l-1 -3l-1 -4l-3 -1l-3 1l-4 1l-1 4l0 5l-2 -3l-2 -3l3 -2l3 -3l5 -2l5 -1l3 1l4 3l3 2l2 4l2 3l2 2l4 -1zM279 396l0 3l-1 4l1 3l-4 3l-3 2l-2 2l-2 3l-3 2l0 5l1 3l-1 3l-1 3l-2 2l-3 2l-2 -3l-1 -5l0 -4l-1 -3l-1 -4l0 -3l-1 -3l-2 -2l-3 -3l-3 -3l-1 -4l-3 -3l-2 -2l-1 -3l-1 -4l0 -3l2 -3l3 -3l2 -2l1 -3l0 -3l1 -3l0 -4l-1 -3l0 -3l1 -5l-2 -2l3 -3l1 -3l3 0l2 -3l7 -2l1 3l2 -2l2 3l2 2l4 -1l3 -1l0 3l-2 4l-3 3l-1 4l2 3l4 2l0 3l1 3l-2 3l-3 4l-5 5l-1 3l1 4l3 2l3 0l2 2l2 2l2 2zM871 341l1 -4l2 -3l2 -3l1 -3l-2 -3l-1 -3l1 -4l-2 -2l-3 0l-3 -3l1 -3l3 -2l4 0l3 1l2 -2l1 -3l2 -3l-3 0l4 -2l3 1l-1 -5l1 -3l4 1l4 -1l3 -2l3 0l2 2l-2 3l-2 2l2 2l3 0l-2 2l-2 2l-2 -2l-4 -1l-4 1l-1 3l-2 2l0 3l4 -1l3 0l3 0l3 0l2 2l3 0l3 -1l3 -1l2 2l3 1l2 2l2 -2l3 0l3 0l3 0l3 -1l1 3l2 3l-1 3l1 3l3 -1l4 1l3 1l0 3l1 3l0 3l0 3l2 2l-1 3l-3 -2l-3 0l-3 1l-4 1l-1 -3l-3 0l-5 3l-2 3l-3 1l-3 1l-2 2l-3 1l-2 -5l0 -3l1 -5l0 -3l-3 -1l1 -4l-3 -3l-4 0l-2 3l-2 3l-1 3l0 3l-3 -1l-3 0l-2 2l0 3l-2 2l-2 -2l-3 0l-3 1l-2 2l-3 1l-3 -2zM536 358l2 2l3 -3l0 -3l3 0l-1 -3l0 -3l2 -2l2 2l4 0l4 -1l5 -2l3 0l2 2l5 1l4 0l5 -2l5 -3l4 -1l3 0l4 0l4 -1l3 -1l2 2l-2 2l-2 3l-2 2l-4 1l-2 4l1 4l0 3l-1 4l0 6l0 3l-3 5l-3 1l-3 2l-3 2l-3 2l-3 2l-3 2l-5 3l-3 2l-2 2l-3 2l-3 2l-4 3l-3 2l-3 2l-3 -1l-3 -2l-3 -2l-1 -3l0 -3l0 -3l1 -3l1 -3l3 -1l1 -3l2 -2l-1 -3l-1 -3l-3 0l-2 -3l0 -3l0 -3l-2 -4l1 -4zM258 199l0 3l0 3l4 1l3 2l2 -2l0 4l-3 2l0 3l-3 0l-3 1l-1 -3l-2 3l-2 2l0 3l-3 -1l-2 -2l-1 -4l-4 2l-1 3l-2 2l-3 -1l-4 2l-2 -2l-2 -2l0 -3l-3 -1l-3 1l-1 3l0 -3l0 -3l2 -2l2 -2l2 -2l2 -2l2 -2l0 -3l3 1l3 -2l3 0l3 0l3 0l1 -3l2 2l4 0l4 2zM359 57l-2 2l-1 3l-1 3l-3 1l-1 3l-2 -3l0 -3l1 -3l2 -2l3 -1l4 0zM332 78l-2 -2l3 -6l2 -3l2 -3l-1 5l-4 9zM278 41l3 0l1 -4l-1 -3l2 -4l3 -1l2 -2l2 -3l0 -3l-1 -3l-1 -3l3 -2l2 -2l-1 -3l-2 -2l-3 -1l0 -5l0 -3l-2 -5l5 0l3 0l4 0l5 0l3 0l-3 0l4 0l3 0l3 0l3 0l5 0l5 0l4 0l3 0l3 0l4 0l4 0l3 0l3 0l6 0l3 0l3 0l4 0l3 0l3 0l-3 0l3 0l3 0l4 0l3 0l3 0l3 0l5 0l6 0l3 0l3 0l3 0l3 0l-3 0l3 0l-3 0l-3 0l-3 0l-4 0l-3 0l-4 0l-4 0l-3 0l-3 0l3 0l-4 0l-3 0l-3 0l-5 0l-3 0l-3 0l-4 0l-3 0l-3 0l-3 0l-3 0l-2 2l-3 -1l1 3l0 4l-1 3l-2 2l-1 3l1 4l1 4l1 3l3 1l3 -1l2 3l3 1l2 3l3 2l1 3l-3 1l-3 2l-3 1l-2 2l3 0l3 -1l-2 3l-3 1l-2 2l-4 1l-4 2l-5 1l-3 0l4 1l0 4l0 5l-2 2l1 3l-2 4l1 3l-1 3l-2 3l-3 5l-3 1l-4 0l-3 0l-3 1l-3 1l-2 2l0 3l-1 4l-4 -1l-5 1l-4 0l0 -3l0 -3l-4 -4l-1 -3l3 1l-1 -3l3 -1l-2 -2l-2 -2l-4 -5l-1 -3l-2 -3l-2 -2l0 -3l-3 -2l0 -3l-2 -4l0 -3l0 -3zM517 668l-3 0l-4 0l-3 0l-5 0l-7 0l3 0l-4 0l-3 0l-4 0l-3 0l-3 0l-7 0l-4 0l-4 0l-3 0l-10 0l-10 0l-3 0l-3 0l-4 0l-3 0l-6 0l-3 0l-3 0l-4 0l-3 0l-4 0l-4 0l-3 0l-3 0l-3 0l-3 0l-3 0l3 0l0 -3l0 -3l2 -3l2 -2l-1 -3l0 -3l3 -1l0 -3l2 -2l1 -3l-1 -3l2 -3l4 0l5 0l0 -3l0 -6l0 -6l0 -6l0 -6l0 -7l0 -6l0 -6l0 -6l0 -3l0 -4l3 0l3 0l5 0l0 -7l0 -7l0 -6l0 -7l4 0l4 0l4 0l4 0l4 0l4 0l4 0l4 0l4 0l4 0l4 0l4 0l4 0l4 0l4 0l4 0l3 -3l1 3l5 0l4 0l3 0l4 0l3 0l3 0l4 0l3 0l4 0l3 0l4 0l3 0l4 0l3 0l4 0l3 0l0 3l2 6l2 2l-1 3l0 3l0 5l0 3l1 5l0 3l1 7l1 3l2 2l3 2l2 2l2 2l3 3l-2 3l-1 3l-3 1l-3 2l-3 4l-3 1l-2 2l-1 4l0 4l0 3l-2 4l-1 6l-2 3l1 3l0 5l0 4l0 4l-1 5l-1 3l-3 0l-3 0l-3 0l-3 0l-3 0l-3 0l-3 0zM191 305l3 0l-1 3l-1 3l-4 0l-2 -2l-3 0l4 -5l4 -1zM139 255l2 2l2 2l3 2l3 1l3 2l3 -1l2 2l3 0l3 0l2 -2l4 1l3 1l1 3l3 0l3 2l4 -1l3 1l3 -2l3 1l-1 4l1 3l-2 2l-8 4l-2 2l-6 2l-3 1l-5 3l1 3l-3 1l-2 4l-2 3l-3 3l-3 5l2 6l2 3l-1 4l-3 2l-2 3l-1 3l-2 3l0 3l-5 0l-3 2l-2 2l-2 4l-1 3l-4 -1l-3 1l-4 0l-3 1l-4 -1l-6 0l-3 3l-3 0l-3 1l-1 3l-2 2l-3 0l-3 -1l-2 -4l-2 -4l2 -2l-7 -4l-3 0l-3 -3l0 -3l2 -4l2 -2l2 -2l-4 -3l0 -3l2 -3l1 -3l-3 -4l-2 -4l4 0l2 -4l-1 -3l2 -2l0 -4l0 -4l1 -3l2 -3l3 -2l-1 -3l-2 -2l-2 -2l-3 0l-3 2l-3 0l-3 0l-3 0l0 -3l-4 0l-3 2l-1 -3l2 -2l-1 -3l-2 -2l-1 -3l-1 -4l4 -3l3 0l3 -1l1 -3l3 -1l3 0l3 2l3 0l4 0l4 0l4 -1l6 1l8 2l3 0l3 0l4 -1l6 2l4 -1l3 2l4 -1zM14 455l-2 -2l3 -2l0 3zM8 465l-3 1l3 -2l2 -5l2 -2l0 5l-4 3zM395 178l-2 4l-2 3l-4 3l-2 -2l-4 -1l-3 0l-3 0l-3 3l-4 2l-3 0l-4 1l-4 1l-2 2l-3 1l-3 1l-4 0l-3 -2l-2 -2l-3 -2l-2 -3l1 -3l2 -3l4 0l3 -1l2 -2l2 -2l2 -2l2 -2l3 0l3 1l2 -2l3 1l2 2l2 2l2 -2l3 -1l3 1l3 0l4 -1l3 0l3 2l3 2l3 1zM332 213l-3 0l-2 2l-3 2l-1 3l-2 3l-2 2l-1 3l-3 -1l-3 -1l-3 1l-3 0l-5 0l3 -2l-2 -2l-1 -3l0 -3l-2 -2l3 -2l3 0l3 1l3 0l3 -2l4 -1l4 0l4 0l1 -3l3 0l0 3l2 2zM397 244l-3 3l-1 3l1 3l3 3l2 2l0 3l-2 2l-3 0l0 3l1 3l-2 2l-3 0l-3 0l-3 -1l3 -3l-4 -3l-2 -2l-2 -3l-2 -2l-2 2l-2 3l-3 0l-2 -2l-3 -1l-3 -3l-2 -2l3 -1l-1 -4l2 -2l-2 -2l-2 -2l-1 -3l2 -2l1 -3l-3 0l0 -3l3 -1l-3 -2l-1 -3l-1 -3l1 -3l3 0l2 -2l3 0l4 0l2 2l3 2l2 2l0 3l2 2l4 2l0 3l2 3l4 1l3 2l3 -2l2 2l-2 2l2 2zM29 648l1 3l0 3l1 3l0 3l0 3l1 3l2 2l3 0l-3 0l-3 0l-4 0l-3 0l-3 0l-4 0l-4 0l-3 0l-3 0l-4 0l-3 0l-4 0l-4 0l3 0l3 -1l3 0l5 1l4 0l-2 -2l-3 0l-3 -2l-2 -2l-3 0l-2 3l-3 0l0 -3l0 -3l0 -5l0 -3l0 -4l0 -5l0 -6l0 -3l0 -4l0 -3l3 -2l3 0l3 -1l4 0l5 3l1 3l3 1l3 1l1 3l1 3l2 2l2 2l1 3l3 2l2 2zM600 622l2 2l-3 -1l-1 -3l2 2zM705 591l-5 1l-3 0l-3 1l-6 1l-3 1l-3 0l-4 1l-4 1l-5 3l-3 1l-3 4l-2 3l-2 4l-2 5l-3 2l-3 -2l-2 -2l-4 0l-5 0l-3 -1l-3 -1l-3 -1l-4 1l-4 0l-3 1l-3 -1l-2 -2l-2 2l-1 3l0 3l1 3l-2 2l-3 3l0 -3l-1 -3l-2 -3l-2 -3l0 -3l-2 -3l-4 -3l-2 -5l-1 -3l-2 -3l-1 -4l-2 -7l-2 -2l-2 -2l-1 -3l-4 -4l-4 -1l-2 -5l-3 -3l-2 -5l1 -3l-1 -3l0 -4l0 -3l0 -5l-2 -3l-1 -3l-1 -3l-1 -4l-3 -5l-2 -2l-3 -1l-2 -2l-2 -2l-3 -5l1 -4l-1 -3l-2 -4l-2 -2l-1 -4l-5 -7l-1 -3l-3 -4l-1 -3l-2 -2l-1 -4l-3 -4l-3 -1l-3 0l2 -6l0 -3l2 -8l4 0l3 1l4 1l3 -2l2 -2l1 -3l2 -2l4 -2l3 0l2 -5l4 -2l-2 -2l-2 -3l-2 -2l-4 -5l2 -3l3 -1l3 -1l3 -1l3 -1l4 -1l4 -2l6 1l3 0l4 1l4 3l3 2l6 3l2 2l3 2l2 2l3 3l3 3l3 2l3 4l4 3l3 3l3 2l3 4l4 0l5 1l5 0l4 1l4 -1l4 1l3 1l1 3l2 3l4 0l4 0l2 5l1 3l1 3l3 2l2 4l2 2l2 3l3 1l2 3l0 3l0 4l0 4l1 3l2 3l1 4l2 3l1 3l3 1l3 0l-1 3l3 1l0 3l2 2l1 3l2 3l2 3l2 3l2 2l4 1l4 0l5 1l4 1l4 0l3 1l3 -1l1 3l2 3l2 4l-1 3l-1 3l-1 3l0 3l-1 3l-1 3l-1 3l-1 3l0 3l-3 1l-4 2l-4 2l-3 1l-4 2l-3 1l-4 2l-4 1l-3 2zM1008 271l0 -3l0 -3l0 -3l0 -3l0 -3l0 -3l0 -6l0 -6l0 -3l0 -3l0 -3l0 -3l0 3l0 -3l0 -3l0 -3l0 -3l0 -3l0 -3l0 -3l0 -3l0 -3l0 -3l0 -3l0 -3l0 -3l0 -3l0 -3l0 3l0 3l0 3l0 -3l0 -4l0 -3l0 -3l0 -3l0 -4l0 -3l0 -3l0 -3l0 -3l0 -3l0 -3l0 -3l0 -4l0 -3l0 -3l0 -3l0 -4l0 -3l0 -3l0 -3l0 -3l0 -3l0 -3l0 -3l0 3l0 4l0 3l0 3l0 3l0 3l0 3l0 4l0 4l0 3l0 3l0 3l0 3l0 4l0 4l0 5l0 -3l0 -3l0 -3l0 3l0 3l0 3l0 4l0 -3l0 -3l0 -3l0 -3l0 -3l0 -3l0 3l0 -3l0 -3l0 -3l0 -4l0 -3l0 -3l0 -3l0 -3l0 3l0 3l0 3l0 3l0 3l0 3l0 3l0 4l0 3l0 3l0 -3l0 -3l0 -3l0 -3l0 3l0 3l0 3l0 3l0 3l0 3l0 3l0 -4l0 -3l0 3l0 -4l0 -3l0 -3l0 -3l0 -3l0 -3l0 -3l0 -3l-3 1l0 3l-3 1l-2 2l-3 -5l-2 -3l-4 -7l-2 -2l-2 -4l-3 -4l-3 -4l-2 -3l-2 -2l-4 -3l-3 -3l-3 -2l-3 -1l-2 -3l3 0l2 -4l-3 1l-3 1l-4 2l-3 0l-2 2l-4 2l-4 1l-2 2l-3 1l-4 -1l-4 2l-2 -2l2 -2l2 -2l-3 -1l-5 -2l-3 0l-2 3l0 -3l-2 -3l-2 2l-4 0l-3 1l-3 -1l1 -3l0 -4l-2 -3l-1 -3l-4 -2l-2 2l-3 -1l-3 -1l-3 -1l-5 0l-3 1l-3 2l-2 2l-3 1l-3 1l-4 1l-5 1l-3 0l-3 1l-3 0l-5 0l-2 2l-2 2l-3 0l-3 0l-3 0l-4 2l-3 0l-3 1l-7 1l-6 1l-5 0l-3 -1l-2 3l-1 3l3 1l3 0l-3 1l-1 3l3 0l3 1l3 1l-2 2l-3 0l-4 0l-3 2l-1 4l2 2l-2 2l-3 1l-3 2l-2 2l4 2l2 2l4 1l4 1l2 2l-1 4l-3 3l-3 1l-3 1l-3 -1l-2 -2l-3 2l-4 3l-3 -2l-3 -1l-3 -2l-3 -3l-3 0l-3 1l-2 2l-3 -1l-3 -2l-4 1l-3 1l-3 2l-3 3l-4 -1l-4 -3l-3 -2l-1 3l0 3l-2 -3l-2 -2l-2 -2l-3 -2l-3 -2l-3 -2l-3 1l-3 0l-2 -2l-2 -2l-3 1l-2 2l-3 1l-2 -2l-3 -1l-3 0l-2 2l-2 2l-3 2l-3 1l-3 1l-2 3l-3 2l-2 2l-1 3l0 3l0 3l-3 1l-3 -2l-3 -4l-3 -2l-2 2l-1 3l-2 2l-3 3l0 3l1 3l0 3l-3 3l0 3l0 3l4 1l1 3l0 3l2 2l3 -1l3 1l3 0l2 4l2 2l2 3l2 4l-3 1l1 3l5 2l-4 3l-1 3l-3 0l-2 2l-5 1l-2 2l-2 2l-1 3l-2 3l-2 2l-2 2l0 3l3 2l2 2l2 5l0 3l2 -3l-1 4l0 3l0 4l2 3l4 6l2 2l1 3l2 2l-2 3l-2 2l-2 2l-2 2l-3 -1l-3 -1l-1 -3l-2 -2l-2 -2l-3 -1l-3 -1l-3 -1l-3 -2l1 -4l-4 0l-2 -2l-3 -2l-3 1l-4 1l-4 1l-2 -3l-3 -2l-3 -1l-2 -2l-3 0l-3 -1l-7 0l-3 -1l-3 -1l-3 -2l-3 0l-3 -1l-2 2l-5 -4l-2 -2l-7 -6l-4 -1l-5 -4l-3 0l-3 -3l-3 -2l-3 -1l2 -2l4 0l4 -2l0 -3l2 -2l1 -3l3 -1l3 0l-2 -2l-2 -3l-3 -1l2 -2l3 0l2 -2l3 -2l4 -1l1 -3l-3 1l-3 0l-5 1l1 -3l0 -4l4 -1l2 -2l3 0l3 0l3 0l1 -3l2 -3l-2 -3l-2 -2l2 -3l-1 -3l3 -1l1 -3l0 -3l-3 0l-4 -2l-2 -2l-3 0l-3 -1l-4 -2l-2 2l-4 -3l-2 -3l-3 -1l-3 1l-3 2l-3 -1l-3 -2l-3 0l-3 0l-2 -2l1 -3l-1 -3l-2 -2l-3 0l-3 -1l-4 0l0 -3l-1 -3l3 -1l-3 -3l-1 -3l-2 -2l-4 0l-3 0l-3 1l-4 -1l-2 3l-3 1l-3 -1l-1 -3l-1 -3l0 -3l-2 -2l0 -3l3 -1l4 1l4 -1l2 -2l-1 -3l-3 -3l-4 0l0 -3l-2 -2l-3 -1l-2 -3l0 -3l-4 -2l2 -4l-2 -3l1 -3l-2 -2l-3 -2l-4 0l-3 1l-3 1l-1 -3l-3 -2l-3 1l-2 -2l-3 1l-2 -2l0 -3l-1 -3l-2 -2l-1 -3l1 -3l-2 -2l-2 -2l0 -3l3 -2l-2 -4l-1 -3l0 -5l2 -3l2 -3l2 -2l0 -3l0 -3l3 1l2 -2l3 0l3 -2l6 0l5 1l-2 -2l-2 -2l-4 0l-3 0l-3 -2l-3 -2l0 -3l-3 2l-4 0l3 -3l3 -2l3 -1l3 -3l3 -1l2 -2l2 -2l3 -2l4 -4l3 -2l4 -2l2 -3l3 -1l-3 0l-5 0l-3 0l-4 0l4 0l-3 0l-4 0l3 0l-3 0l-3 0l-4 0l3 0l4 0l3 0l-5 0l-5 0l-4 0l-3 0l3 0l3 0l4 0l5 0l3 0l3 0l4 0l3 0l4 0l4 0l6 0l6 0l-8 0l4 0l3 0l4 0l4 0l6 0l7 0l3 0l7 0l8 0l12 0l7 0l3 0l9 0l3 0l4 0l3 0l3 0l3 0l3 0l-9 0l-4 0l-9 0l-6 0l-3 0l-5 0l-3 0l-4 0l-3 0l-6 0l-9 0l-8 0l-3 0l-4 0l-4 0l-3 0l-3 0l-3 0l-5 0l-5 0l3 0l3 0l4 0l3 0l3 0l7 0l3 0l3 0l-3 0l3 0l3 0l3 0l4 0l5 0l3 0l3 0l3 0l4 0l3 0l4 0l-3 0l-3 0l-3 0l-4 0l-3 0l3 0l3 0l5 0l5 0l4 0l7 0l5 0l3 0l3 0l3 0l-3 0l-3 0l5 0l4 0l4 0l4 0l4 0l3 0l4 0l3 0l3 0l5 0l3 0l3 0l4 0l-4 0l-3 0l4 0l-8 0l7 0l10 0l5 0l4 0l3 0l3 0l-3 0l-7 0l-6 0l7 0l3 0l4 0l3 0l10 0l3 0l5 0l4 0l3 0l10 0l4 0l5 0l4 0l5 0l4 0l3 0l4 0l-3 0l3 0l8 0l4 0l4 0l3 0l-6 0l-3 0l-3 0l6 0l4 0l3 0l3 0l3 0l3 0l3 0l3 0l3 0l4 0l3 0l6 0l7 0l8 0l3 0l4 0l3 0l3 0l4 0l3 0l-5 0l5 0l10 0l9 0l8 0l9 0l4 0l3 0l5 0l4 0l4 0l3 0l4 0l4 0l5 0l5 0l3 0l4 0l4 0l-3 0l-4 0l-4 0l-4 0l-7 0l-3 0l3 0l-3 0l5 0l3 0l4 0l4 0l3 0l5 0l3 0l3 0l3 0l3 0l5 0l9 0l4 0l5 0l4 0l-4 0l-3 0l-3 0l3 0l5 0l6 0l4 0l-3 0l-3 0l-4 0l-8 0l-5 0l-3 0l-4 0l-3 0l3 0l-3 0l-3 0l-3 0l-7 0l3 0l3 0l3 0l3 0l9 0l4 0l4 0l4 0l11 0l5 0l3 0l6 0l-3 0l8 0l5 0l5 0l4 0l3 0l4 0l3 0l3 0l3 0l6 0l4 0l-4 0l-4 0l-6 0l3 0l-3 0l-3 0l-7 0l-7 0l-5 0l-5 0l-3 0l-4 0l-4 0l-3 0l5 0l-5 0l-4 0l-3 0l6 0l3 0l4 0l5 0l3 0l-3 0l4 0l3 0l3 0l-3 0l3 0l4 0l7 0l9 0l5 0l4 0l5 0l-4 0l-4 0l-3 0l-5 0l-3 0l-3 0l-5 0l-3 0l3 0l5 0l7 0l3 0l4 0l-4 0l-3 0l5 0l5 0l10 0l6 0l5 0l3 0l-3 0l3 0l-1016 0l1016 0l0 3l0 -3l0 3l0 3l0 3l0 3l0 4l0 3l0 3l0 4l0 3l0 3l0 3l0 -3l0 -3l0 7l0 -3l0 -3l0 3l0 3l0 4l0 5l0 3l0 4l0 5l0 5l0 3l0 3l0 4l0 3l0 3l0 3l0 3l0 3l0 3l0 -3l0 -3l0 3l0 6l0 4l0 4l0 3l0 4l0 3l0 3l0 4l0 3l0 3l0 4l0 3l0 5l0 3l0 5l0 4l0 3l0 3l0 5l0 -3l0 -3l0 -6l0 -7l0 -3l0 -3l0 -13l0 -10l0 -5l0 -5l0 -8l0 -4l0 -8l0 -5l0 -3l0 -3l0 -3l0 -4l0 -4l0 -3l0 -3l0 -6l0 -3l0 -3l0 -3l0 -3l0 -3l0 -3l0 -3l0 -3l0 -3l0 -3l0 -3l0 -4l0 -3l0 -3l0 -3l0 3l0 3l0 4l0 3l0 8l0 3l0 -4l0 -3l0 -4l0 -3l0 3l0 4l0 4l0 3l0 3l0 6l0 3l0 3l0 3l0 3l0 4l0 -3l0 -5l0 -3l0 3l0 3l0 4l0 4l0 3l0 3l0 6l0 4l0 3l0 4l0 6l0 7l0 3l0 3l0 4l0 3l0 3l0 3l0 4l0 5l0 4l0 -3l0 -3l0 3l0 4l0 -3l0 3l0 -5l0 -3l0 3l0 3l0 3l0 4l0 3l0 3l0 3l0 3l0 3l0 3l0 4l0 4l0 3l0 3l0 3l0 3l0 6l0 3l0 4l0 4l0 3l0 5l0 3l0 3l0 3l0 3l0 3l0 4l0 4l0 3l0 4l0 4l0 5l0 4l0 3l0 3l0 3l0 4l0 3l0 7l0 4l0 3l0 6l0 3l0 -6l0 3l0 3l0 4l0 3zM379 92l-2 2l-2 2l3 1l3 0l0 -4l3 0l4 2l3 0l4 0l2 2l0 4l0 3l-6 1l-5 0l-6 0l-5 -1l-4 0l-3 0l-3 0l2 -3l1 -4l5 0l3 -2l2 -3zM512 219l2 -2l3 2l3 0l3 1l1 3l3 1l2 3l2 2l3 -1l3 1l2 -2l4 1l-2 3l-2 2l-4 1l-2 -2l-3 2l-3 2l-4 0l-4 4l-2 2l-4 0l-3 -2l2 -5l-1 -3l-3 -1l-4 -2l-3 0l2 -4l4 -2l3 -1l2 -3zM455 227l2 3l4 0l5 -2l3 1l1 3l0 3l-6 2l0 -3l-2 2l0 3l-2 3l0 6l-1 3l-4 -1l-3 -2l-3 -1l-6 -2l-3 0l-3 1l-3 1l-3 2l-3 2l-5 1l-4 -1l-4 -1l-5 0l-4 -1l-4 0l-3 1l1 -3l-2 -2l-2 -2l-1 -3l-2 -2l-3 2l-3 -2l-3 -2l-1 -3l-2 -3l-3 -1l-1 -3l0 -3l-3 -2l-2 -2l3 -1l2 -2l3 0l2 -2l1 -3l2 -3l2 -3l1 -3l1 -3l2 -2l3 -1l3 -1l2 -2l2 -2l3 2l3 -1l4 1l4 0l4 3l3 0l4 -2l5 -1l3 -1l2 -3l3 0l3 1l2 3l1 3l2 3l2 2l2 3l2 2l1 3l1 4l-1 5l0 3l0 3l0 3zM698 514l-3 0l-2 -3l-1 -5l0 -3l1 -3l2 -5l3 -2l2 3l0 3l0 3l1 3l0 3l-2 5zM65 276l2 -2l3 -1l2 2l2 2l3 -1l3 1l2 -2l4 1l3 0l0 3l3 1l-2 3l-3 3l-2 2l1 4l0 4l-1 3l0 3l-1 3l-5 2l2 3l1 4l2 2l-2 3l-1 3l2 5l-1 3l-2 3l-1 3l1 5l-5 2l-3 -1l-3 0l-3 1l-3 0l2 -5l0 -3l0 -3l0 -5l-1 -3l3 0l-3 -1l-3 1l0 -3l2 -2l1 -3l-2 2l-2 2l-2 -2l1 -4l0 -3l3 -2l1 -4l2 -4l1 -7l1 -4l0 -3l-2 -6l-1 -3zM406 144l1 3l2 2l1 3l1 3l0 3l-4 2l-2 2l-2 2l-3 2l-3 4l0 4l0 3l-3 1l-4 -2l-2 -2l-5 -1l-3 0l-3 1l-3 -1l-3 1l-2 2l-3 0l0 -3l-3 -2l-4 2l-3 -1l-2 -4l-3 -2l-3 -1l-3 0l-2 -2l-2 -2l-3 -1l-3 -1l2 2l-2 2l-4 -2l-2 -2l2 -2l-4 -1l-3 -1l-3 -1l-2 -2l-3 -1l-2 2l1 -3l0 -4l-2 -2l-1 -3l1 -3l0 -3l-2 -2l1 -3l-4 -3l-1 -3l2 -2l-1 -6l2 -2l-2 -2l5 -2l6 -2l6 -2l3 0l2 -2l2 -2l4 0l4 -2l6 -1l5 -1l4 3l-3 -1l2 3l2 2l6 0l3 -1l3 0l3 0l4 0l5 1l6 0l5 0l6 0l3 0l3 2l2 2l1 6l2 5l1 3l1 3l-5 4l-2 2l0 3l3 1l0 3l0 4zM966 362l1 3l1 3l0 3l-2 2l-2 2l-4 1l-3 0l-2 2l-3 -1l-3 -1l-4 -1l-3 0l-3 0l-3 1l-1 3l2 3l1 3l-1 3l1 3l-1 3l0 3l3 1l0 3l3 1l1 3l3 1l3 1l0 3l-5 3l-2 2l0 4l-1 3l1 3l-2 2l-2 2l-2 4l-1 3l-3 3l-3 2l-1 4l-1 3l-2 4l-4 3l-3 2l-1 4l-3 4l-1 3l-3 1l-3 0l-4 2l-2 -2l-2 -2l-3 1l-2 3l-1 3l-2 3l-2 2l-1 3l2 3l3 2l2 3l0 4l2 5l3 0l1 4l1 3l2 4l1 3l-1 3l-2 3l-2 -2l-3 0l-3 2l-3 1l-2 -2l-3 0l-3 0l-3 0l0 5l-3 0l-3 1l-3 0l-3 0l-1 -3l-2 -2l-1 -7l-5 -2l0 -3l-1 -4l-2 -2l-3 0l3 1l-6 1l-5 0l-3 1l-3 0l-2 2l-5 -2l-4 -1l-3 1l-3 1l-5 0l-3 1l-3 0l-4 1l-2 -3l1 -4l1 -3l1 -5l2 -2l3 -2l3 -1l5 -1l1 -3l1 -3l-1 -3l-3 1l-1 -3l0 -5l-1 -3l1 -3l-3 0l-2 -3l-3 -1l-3 -2l-2 -3l-2 -5l-2 -4l-2 -2l-2 -2l4 1l4 1l5 2l3 2l13 -1l4 1l3 -2l3 0l3 0l3 0l4 -1l5 -2l3 -1l0 -3l1 -4l0 -4l1 -4l2 -2l2 -3l3 1l4 0l3 -2l-2 -2l5 -2l2 -2l3 0l3 2l3 -1l2 -3l0 -4l0 -3l1 -3l1 -5l3 -1l4 -1l2 -3l-2 -3l-3 -4l2 -2l3 1l4 0l4 -1l0 -3l-1 -3l1 -3l2 -2l2 -2l2 -2l-1 -3l0 -3l-1 -3l-2 -3l2 -4l2 -2l3 -1l2 -2l3 -1l4 -1l4 -1l3 0l3 0l3 1l4 -2l3 -1l3 1l4 1l2 2l3 1l1 3l1 4l1 3l2 2l3 -1l2 3zM717 623l-2 -3l-1 -4l-2 -3l0 -3l-1 -3l-2 -4l-1 -4l-1 -3l-2 -4l2 -2l3 -1l4 -2l3 -1l4 -2l4 -2l3 -1l4 -2l3 -1l2 -3l1 -3l1 -3l0 -3l1 -3l1 -3l1 -3l0 -3l1 -3l0 -3l-2 -3l-1 -3l-1 -4l0 -3l2 -4l1 -4l0 -3l2 -2l3 -1l-2 -2l0 -3l0 -3l0 -3l3 0l3 -1l2 3l1 4l2 2l3 4l5 3l3 0l3 1l3 1l4 2l2 4l2 3l1 3l3 3l3 1l-1 4l-1 3l-2 3l-1 4l-3 2l-2 3l-2 4l-2 4l-2 2l-1 -3l-3 3l-1 4l-1 4l-1 3l1 4l0 4l-4 1l-5 1l-3 4l-1 5l-2 3l-4 0l-4 1l-3 4l0 3l-1 3l-5 3l-4 -1l-3 0l-3 2l-2 2l-3 0zM751 499l-2 -2l0 -3l2 -3l0 6zM375 -8l-5 0l-3 0l-6 0l-3 0l-3 0l-4 0l-3 0l-5 0l-3 0l-5 0l-3 0l-4 0l3 0l-6 0l-3 0l-5 0l-6 0l-5 0l-4 0l4 0l-4 0l-4 0l-3 0l-4 0l-4 0l-3 0l3 4l0 4l-1 4l3 2l3 2l1 3l-2 2l-3 0l1 5l1 3l0 3l-2 3l-2 2l-3 0l-1 3l0 3l0 4l-2 3l-2 -2l-3 -1l-3 0l-2 -3l0 -3l-3 1l1 3l-2 3l-3 2l-4 -2l-3 3l-1 3l-3 1l-4 4l-3 1l-3 1l-6 2l-4 0l-2 -2l-3 1l1 -3l-3 0l-3 -1l-4 -2l-2 -3l0 -3l4 0l3 0l-3 -2l1 -3l2 -2l-4 1l-3 1l-2 2l-2 -4l2 -3l3 0l3 -1l3 -1l-4 0l2 -3l2 -3l4 -2l0 3l1 -3l3 -1l-6 1l-3 1l-2 2l-2 2l-2 2l-2 2l-2 -2l1 -3l3 1l-2 -2l-2 -2l4 -4l-3 1l-2 -2l0 -3l2 -2l3 0l5 -1l3 1l3 -1l4 0l6 -1l-1 -3l-2 2l-3 2l-3 -1l-3 1l-3 -1l-5 1l-3 0l-3 -2l1 -3l-2 -2l0 -3l5 -1l4 1l7 1l3 -1l-4 0l-3 0l-4 -1l-5 0l-1 -3l3 -1l3 -2l3 -1l6 0l-3 0l2 -2l3 0l6 0l3 0l5 0l-7 0l-3 0l-4 0l3 0l4 0l3 0l4 0l6 0l-3 0l3 0l-3 0l3 0l5 0l4 0l3 0l3 0l3 0l4 0l4 0l3 0l-4 0l-7 0l-3 0l-3 0l5 0l3 0l3 0l3 0l4 0l7 0l4 0l4 0l-4 0l-3 0l4 0l4 0l-3 0l7 0l3 0l4 0l-4 0l-3 0l-3 0l3 0l4 0l3 0l3 0l3 0l8 0l-6 0l-3 0l4 0l4 0l3 0l-3 0l-3 0l-3 0l3 0l3 0l3 0l-3 0l4 0l3 0l3 0l4 0l3 0l4 0l3 0l-4 0l-7 0l4 0l5 0l3 0l4 0l3 0l3 0l3 0l-3 0l3 0l3 0l5 0l3 0l3 0l3 0l3 0l4 0l3 0l3 0l-4 0l4 0l3 0l3 0l4 0l3 0l3 0l4 0l4 0l3 0l3 0l5 0l3 0l3 0l-4 0l-3 0l4 0l6 0l3 0l3 0l5 0l3 0l3 0l-3 0l3 0l3 0l3 0l3 0l-5 0l3 0l3 0l3 0l3 0l3 0l3 0l3 0l3 0l4 0l3 0l-4 0l-3 0l-3 0l-12 0l8 0l5 0l3 0l3 0l3 0l-3 0l-4 0l-4 0l-5 0l-3 0l-3 0l4 0l-4 0l-4 0l-4 0l-3 0l-4 0l-3 0l-4 0l-4 0l-3 0l-3 0l-3 0l-3 0l-3 0l-4 0l-4 0l-3 0l-4 0l-3 0l-4 0l-3 0l-5 0l-5 0l-3 0l-3 0l-3 0zM301 664l-3 0l-3 2l-3 2l-3 0l-4 0l-4 0l-3 0l-5 0l-5 0l-3 0l-3 0l-3 0l-4 0l-3 0l-5 0l-4 0l-3 0l-5 0l-3 0l-4 0l-3 -3l-6 -2l-3 -2l-3 2l-3 0l-3 0l-3 1l-2 3l-3 1l-3 0l-3 0l-5 0l-3 0l-4 0l-3 0l-3 0l-3 0l-3 0l-1 -3l-3 -1l-2 -2l-1 -3l0 -3l-2 -3l0 -4l0 -3l5 0l3 0l2 -2l2 -2l5 0l3 0l3 -1l3 0l3 0l4 -1l4 -3l2 -2l1 -3l0 -3l2 -5l0 -3l0 -3l0 -4l0 -4l0 -3l0 -4l0 -4l0 -4l0 -4l3 -3l6 -1l3 -1l4 -1l4 -4l2 -2l3 -3l2 -2l2 -3l3 -3l3 -3l3 -3l6 -4l5 -4l6 -4l5 -4l6 -5l5 -4l5 -4l6 -4l5 1l6 2l5 1l4 4l3 4l4 -2l5 -3l1 8l1 7l0 4l1 3l3 6l0 3l4 5l-2 5l-1 7l0 4l-1 5l0 7l0 5l-1 8l0 7l-3 3l-5 7l-4 6l-2 3l-4 7l-2 5l-2 3l1 4l1 6zM221 155l-3 -1l0 -3l-1 -3l-3 0l-2 -2l-3 0l-3 -1l-3 1l-3 -1l-3 0l-3 -1l3 -1l4 2l1 -3l-3 -2l2 -3l3 -2l2 -4l1 -5l4 -2l3 -2l2 -2l4 -1l5 -1l5 0l2 2l2 4l-2 3l-3 2l2 2l1 3l-2 2l-1 3l-3 0l-3 0l-2 2l2 3l-1 4l-2 3l1 4zM202 146l-2 2l-3 0l-3 0l2 -2l3 0l3 0zM135 370l3 3l1 3l0 3l1 3l0 3l0 3l1 3l-1 3l2 3l0 3l2 3l2 2l-1 3l0 3l-3 0l-3 0l-3 0l-4 -1l-3 1l-2 2l-5 3l-3 0l-2 2l1 3l0 3l2 2l-3 1l-3 2l-4 2l-4 2l-3 4l-2 3l-4 2l-4 0l-3 0l-1 3l-3 0l-3 0l-2 2l-3 1l-4 3l-3 3l-3 3l-2 2l0 4l0 3l0 3l0 3l0 3l0 3l-3 2l-3 0l-3 1l-2 2l-3 -1l-3 0l-3 -1l-3 0l-4 1l0 3l-2 3l-2 3l-1 3l-3 0l0 3l-1 3l-1 3l-1 4l-1 3l-2 3l-3 2l-2 2l-1 4l-2 2l-3 1l-2 2l-1 3l-2 6l0 3l0 4l-1 3l-1 3l-2 2l-1 3l-1 4l-3 0l-3 0l-3 0l-2 -6l0 -4l0 -6l0 -3l0 -3l0 -5l0 -4l0 -3l2 -2l4 -5l3 -4l1 -7l1 -4l1 -4l2 -5l3 -3l5 -3l2 -3l1 -4l1 -4l1 -3l2 -2l2 -3l4 0l5 -2l4 -2l3 -3l2 -3l5 -3l5 -6l2 -3l1 -3l2 -4l1 -3l-2 -4l-1 -3l0 -3l1 -5l1 -4l4 -5l1 -5l4 -6l2 -4l4 -3l7 -3l5 -3l2 -2l2 -2l4 -9l4 -12l2 -2l3 -1l2 2l2 4l3 2l5 2l4 -1l3 -1l3 1l4 -1l2 2l4 0l3 1zM66 472l0 5l1 5l0 3l0 3l0 3l0 4l-3 0l-4 0l-3 0l-4 0l-4 0l-4 0l-4 0l-4 0l-4 0l-2 3l0 4l0 4l0 3l0 4l0 4l0 4l0 3l0 4l-2 3l-3 1l-4 3l-2 2l-1 3l1 3l0 3l0 4l1 4l0 3l-2 2l-5 0l-4 0l-3 0l-5 0l-4 0l-3 0l-3 0l0 4l0 3l0 -8l3 -1l3 0l4 0l2 -3l0 -3l2 -2l2 -3l1 -3l0 -4l0 -3l1 -5l1 -4l2 -2l3 -2l3 -2l1 -3l2 -3l2 -2l3 -2l1 -4l1 -4l1 -3l1 -3l0 -3l3 0l1 -3l2 -3l2 -2l-1 -3l3 -1l3 -1l3 0l3 2l3 -1l3 0l2 -2l3 0l3 -1l2 -2l-1 -3zM360 254l2 2l2 2l2 2l4 2l-1 3l-1 3l-2 -2l-2 2l-2 2l-1 3l1 3l-3 -2l-2 -3l-3 -1l-2 -2l0 -4l0 -3l2 -2l2 -3l2 -2zM438 189l2 -2l5 0l3 -1l3 1l3 2l3 1l4 1l2 2l2 2l0 3l2 3l2 2l0 3l2 2l2 2l2 4l-3 1l-3 -1l-3 -1l-3 1l0 3l-1 3l-2 2l-2 2l0 3l-3 0l-2 -2l1 -3l0 -4l1 -3l0 -4l-2 -5l-2 -2l-2 -2l-2 -3l-2 -3l-1 -3l-2 -2l-2 -2zM29 648l-2 -2l-3 -2l-1 -3l-2 -2l-2 -2l-1 -3l-1 -3l-3 -1l-3 -1l-1 -3l-3 -2l-5 -1l-3 0l-3 1l-3 1l-1 3l0 3l0 3l0 -6l0 -4l0 -5l0 -3l0 -5l0 -5l0 -4l0 -5l0 -6l0 -4l0 -3l0 -4l0 -3l0 -3l0 -3l0 -3l0 -6l0 4l0 -3l0 -4l3 0l3 0l4 0l3 0l5 0l4 0l3 0l4 0l0 -3l0 -4l-1 -4l0 -4l-1 -4l1 -3l2 -2l2 -2l4 -1l3 -2l0 -4l0 -3l0 -4l0 -4l0 -4l0 -3l0 -4l0 -4l0 -4l4 -1l4 0l4 0l4 0l4 0l4 0l3 0l4 0l5 0l0 -4l0 -3l0 -3l0 -3l0 -3l3 1l2 2l4 3l4 3l4 3l4 3l4 3l4 3l4 3l2 2l3 2l-6 1l-4 0l-3 0l-4 1l1 3l0 3l0 3l1 4l0 3l0 4l1 3l0 4l0 3l0 3l1 4l0 3l0 4l1 3l0 3l0 4l1 3l0 4l0 3l0 4l1 3l0 3l0 4l1 3l0 4l0 3l1 3l0 4l0 3l0 4l1 3l0 4l0 3l1 3l2 4l0 3l-1 4l0 4l-4 0l-3 0l-4 0l-4 0l-5 0l-4 0l-4 0l-4 0l-3 0l-4 0l-2 -2l-1 3l-3 0l-4 1l-3 -1l-3 0l-2 4l-3 -3l-2 -3l-3 1l-2 3l0 4l-2 3zM38 668l-3 0l-3 -2l-1 -3l0 -3l0 -3l-1 -3l0 -3l-1 -3l3 -1l1 -3l1 -3l2 -3l4 3l2 2l3 -3l3 0l3 0l4 0l3 0l1 -3l2 2l4 0l3 0l4 0l4 0l4 0l3 0l4 0l4 0l5 0l4 0l0 -4l1 -4l0 -3l-2 -4l-1 -3l0 -3l0 -4l-1 -3l0 -4l0 -3l0 -4l-1 -3l0 -3l0 -4l-1 -3l0 -4l0 -3l-1 -3l0 -4l0 -3l0 -4l-1 -3l0 -4l0 -3l-1 -3l0 -4l0 -3l-1 -4l0 -3l0 -3l0 -4l-1 -3l0 -4l0 -3l-1 -4l0 -3l0 -3l-1 -3l4 -1l3 0l4 0l4 0l4 0l3 3l3 3l4 3l3 2l4 3l3 3l3 3l4 3l3 3l4 3l3 3l4 3l3 3l4 3l3 3l4 3l3 3l3 3l2 2l0 3l5 4l1 3l5 1l2 2l3 1l3 1l3 2l0 3l0 3l-1 3l2 2l4 -1l5 -1l0 6l0 4l0 4l0 4l0 3l0 4l0 4l0 3l0 3l-1 3l-1 5l-1 3l-2 2l-2 2l-5 1l-4 1l-3 0l-3 1l-3 0l-3 0l-4 2l-2 2l-3 0l-3 0l-4 0l-3 -1l-3 0l-4 2l-3 2l-3 2l-2 2l-3 0l-1 4l-4 -1l-3 3l-2 4l-3 1l0 4l-3 0l-4 0l-3 0l-3 0l-3 0l-4 0l-3 0l-3 0l-3 0l-3 0l-3 0l-3 0l-3 0l-3 0l-3 0l-3 0l-3 0l-3 0l-3 0l-3 0l-3 0l-3 0l-3 0l-3 0l-4 0l-3 0l-3 0l-3 0zM385 271l3 0l3 -1l4 3l3 1l1 3l0 3l0 4l-2 2l-3 1l-3 -1l-4 3l-3 1l-3 0l-3 0l-3 -2l-1 -3l-1 -4l1 -4l2 -2l4 -3l3 0zM222 163l1 3l3 2l-1 4l-3 0l-3 0l0 -3l-1 -3l2 -2zM398 105l-1 -3l1 -4l-3 -3l-4 0l-3 0l-3 -1l-2 -2l-2 -2l-1 -5l0 -3l2 -2l4 -2l4 -1l3 0l3 0l3 0l3 0l4 1l3 0l3 1l4 0l2 -2l4 3l5 1l3 2l4 2l2 2l2 2l-2 2l3 1l-4 2l-2 2l-3 1l-1 3l-1 3l-1 3l2 2l-3 0l-2 -2l-2 2l-3 0l-2 2l-3 1l-3 0l-3 0l-3 0l0 -3l-3 -2l-3 -1zM258 437l3 -2l3 -3l1 -3l1 -3l-1 -3l-1 -3l2 -3l3 -2l2 -3l3 -2l3 -3l2 -2l-1 -4l1 -5l3 1l5 3l5 1l4 -1l4 1l4 0l3 1l3 3l8 2l2 3l0 3l1 4l2 3l5 2l3 1l4 0l6 2l5 2l3 2l5 5l3 2l4 0l3 -2l5 -5l1 -3l0 -3l-1 -3l-1 -5l0 -3l2 -3l2 -3l3 -2l5 -2l3 -1l3 -2l5 1l4 1l4 2l2 3l2 3l5 1l3 2l5 0l4 0l2 4l-1 3l-1 4l0 4l1 3l-1 3l-2 3l1 5l1 5l1 4l0 4l0 3l0 3l0 3l0 3l0 3l0 4l0 3l0 3l0 3l0 3l0 3l0 3l0 3l0 3l0 3l0 3l0 4l0 3l0 3l0 3l0 3l0 3l0 3l0 3l0 3l0 3l0 3l0 3l0 4l0 3l0 3l0 7l0 6l0 7l0 7l-3 0l-5 0l-3 0l0 4l0 3l-5 -3l-5 -3l-5 -4l-5 -3l-5 -3l-5 -3l-5 -4l-5 -3l-5 -3l-5 -3l-5 -4l-5 -3l-5 -3l-5 -3l-5 -4l-5 -3l-4 -2l-4 2l-3 2l-3 2l-5 3l-3 2l-4 -4l-3 -3l-6 -2l-6 -2l-5 -1l-1 -3l-3 -6l-5 -4l-5 -1l-3 0l-2 -2l-2 -5l0 -3l-2 -5l-2 -4l-2 -2l0 -3l3 -2l2 -2l0 -4l-1 -3l-1 -4l1 -3l1 -3l0 -3l-1 -7l1 -6l-1 -3l-1 -3l-1 -3l-2 -5l0 -3zM537 376l3 0l2 2l1 4l-2 2l0 3l-3 0l-2 2l0 3l-2 2l-2 3l-3 0l0 -4l3 -7l1 -5l2 -2l2 -2zM438 87l-3 -1l-3 -2l-4 -3l-5 -1l-3 -2l-4 0l-4 1l-3 -1l-3 0l-4 -1l-3 0l-3 0l-3 0l-3 0l-3 1l-5 2l-3 1l0 -7l1 -3l3 -3l0 -3l4 -4l5 -1l3 -1l5 4l3 4l4 2l3 0l3 -3l2 -2l-1 -4l0 -3l5 -2l3 -1l3 0l2 2l4 1l3 3l3 1l3 0l4 0l3 0l2 3l2 2l-1 3l1 3l2 2l1 3l0 3l-5 3l-2 2l-4 0l-3 1zM905 299l3 -1l3 1l3 0l3 -3l3 1l0 -3l3 1l4 -3l-2 -2l-3 0l-2 -2l-2 -2l-3 0l-1 -3l-2 -2l0 3l-2 3l-4 -1l-3 -1l-1 -3l-3 0l1 -3l2 -3l2 -2l4 -1l-2 -2l0 -4l2 -2l3 -1l3 0l3 0l5 1l2 2l4 1l3 1l0 -4l1 -4l4 -2l3 -1l4 2l5 2l3 1l3 1l2 -2l4 0l3 0l5 -1l3 1l3 0l3 1l5 0l4 0l3 1l3 2l2 2l4 1l3 2l2 3l-4 1l-4 2l-4 2l-4 2l-3 2l-4 5l-3 0l-6 0l-3 0l-3 3l-1 3l-2 3l-3 0l-4 1l-1 -3l-4 1l-3 0l-2 2l-4 2l-3 1l-2 2l-1 3l1 3l-3 1l-3 0l-3 1l-4 0l-3 0l-2 2l-2 -2l-3 1l-2 -2l-2 -2l-3 1l-3 2l-2 -3l-4 1l-3 -1l-3 0l-3 1l-1 -3l0 -3l2 -2l3 -1l4 0l3 1l2 2l2 -3zM668 460l-4 0l-4 0l-2 -3l-1 -3l-3 -1l-4 -1l0 -3l2 -3l1 -4l2 -3l3 -1l3 1l2 3l2 3l-4 2l3 2l1 5l2 3l1 3zM372 263l3 -2l0 -3l3 1l3 3l2 2l3 1l-1 4l-2 3l-3 0l-3 2l-1 3l-2 -2l0 -3l-3 -2l-2 -3l0 -3l3 -1zM905 271l-3 2l-3 1l-2 2l-3 2l-3 1l-3 2l-2 2l-2 3l-3 2l-1 3l0 3l-3 -1l-3 -2l1 -3l-2 -2l-4 0l-3 0l-5 1l-2 -3l0 -4l-1 -4l-3 -1l-2 -3l0 -4l0 -4l1 -3l-3 2l-2 -3l-2 -3l-2 -2l-2 -2l-2 -2l-3 2l-3 0l-3 0l-4 0l-5 -1l-4 1l-4 1l-4 0l-3 -3l-2 -2l-2 -2l-2 -2l-2 -3l-3 -2l-3 -2l-3 -1l-2 -2l-3 -2l-3 -2l-3 -2l-3 -1l-3 -2l-3 1l-3 1l-3 0l-4 1l-3 2l-4 1l-4 1l-3 1l0 3l0 3l0 3l0 3l0 3l0 4l0 3l0 3l0 3l0 3l0 3l0 4l0 3l0 3l0 3l0 3l-3 1l-3 -1l-2 -2l-3 -5l-3 -3l-2 -2l-3 -2l-5 1l-5 1l-4 2l-4 4l0 -4l1 -4l1 -3l0 -3l-3 0l-3 -1l-3 -1l-2 -3l-3 0l0 -3l-1 -3l-2 -2l-1 -3l-1 -3l-4 -2l-2 -2l2 -2l4 0l3 1l3 0l-2 -2l-2 -2l1 -3l2 -3l4 -2l4 0l4 0l3 1l4 0l-3 -2l1 -4l1 -3l1 -3l0 -3l0 -3l0 -3l-5 -1l-3 0l-3 1l-3 -1l-5 -2l-4 1l-3 1l-4 2l-3 2l-4 1l-3 1l-4 1l-3 -2l-2 -2l3 0l1 -3l-3 -4l-2 -3l-2 -4l-3 0l-3 -1l-3 1l-2 -2l0 -3l-1 -3l-4 -1l0 -3l0 -3l2 -2l2 -2l-2 -3l0 -5l2 -2l2 -2l1 -3l2 -3l4 2l2 3l2 2l3 1l3 -2l-1 -3l-1 -5l3 -1l4 -3l2 -3l3 -1l3 -1l3 -2l2 -2l2 -2l3 0l3 1l2 2l3 -1l2 -2l3 -1l2 2l2 2l3 0l3 -1l3 1l2 3l3 1l2 2l3 3l0 3l2 -3l-1 -3l3 1l4 3l4 2l4 -1l2 -3l4 -2l3 0l4 0l3 2l2 -2l4 -1l3 0l2 2l3 3l3 1l4 0l3 1l2 -3l4 1l3 1l3 -1l3 -1l3 -3l1 -3l-2 -3l-4 -1l-4 -1l-2 -2l-4 -2l2 -2l3 -2l3 -1l2 -2l-2 -2l0 -3l2 -2l4 -1l4 0l3 0l-3 -3l-3 -1l-3 0l1 -3l3 0l-3 -1l-3 -1l1 -3l2 -3l3 1l4 1l6 -1l6 -2l3 -1l3 0l4 -1l4 -1l4 0l3 0l2 -2l2 -2l3 0l5 0l3 -1l3 0l3 -1l4 -1l4 -1l3 0l1 -3l3 -1l4 -2l4 0l5 1l3 1l3 1l2 -2l3 0l2 5l2 3l0 3l-1 3l3 2l3 -1l3 0l3 -2l2 3l0 3l2 -2l3 -1l3 2l4 0l-1 3l-2 2l2 3l2 -2l5 -1l3 2l3 -4l3 -1l3 -1l2 -2l3 -1l4 -2l4 -1l3 -1l-1 3l-3 1l2 3l3 1l3 2l3 3l3 1l3 4l2 3l3 4l3 4l2 4l2 2l3 5l3 5l2 3l2 2l2 -2l2 -2l2 -3l1 3l0 3l0 3l0 3l0 3l0 3l0 3l0 3l0 -3l0 3l0 3l0 3l0 4l0 3l0 3l0 3l0 4l0 4l0 3l0 3l0 3l0 -3l0 3l0 4l0 4l0 3l0 4l0 3l0 3l0 3l-3 1l-3 1l-3 1l2 2l3 1l0 3l0 3l0 3l1 3l1 3l1 3l1 3l-3 2l1 3l-3 1l-1 4l1 3l-4 -2l-3 0l-3 -2l-2 -3l-3 0l-4 -1l-5 0l-4 -1l-3 0l-3 -1l-4 1l-5 0l-3 0l-3 2l-3 -1l-3 -1l-3 -1l-4 -2l-3 -1l-4 2l-3 5l1 4l-3 -1l-4 -1l-3 -2l-3 -1l-5 0l-3 0l-3 1l-2 2l-2 3zM535 402l2 3l3 1l5 2l3 -2l3 -2l2 -2l5 -3l3 -2l2 -2l3 -2l1 3l1 3l0 3l1 3l0 3l3 1l-2 2l-4 2l-4 1l-3 1l-3 1l-3 1l-3 1l-3 1l4 5l3 4l2 3l2 2l-4 2l-1 3l-4 2l-4 2l-2 2l-1 3l-2 2l-2 2l-3 0l-5 -2l-4 0l0 -3l1 -3l0 -3l1 -3l0 -3l1 -4l1 -4l1 -3l0 -4l1 -4l0 -3l0 -3l0 -5l2 -2zM232 221l3 0l3 -1l3 1l2 -3l2 -3l3 3l3 1l1 3l1 -3l2 -2l0 -3l3 1l3 0l3 2l0 -3l1 -3l3 1l0 -4l3 1l3 0l2 -3l3 0l3 0l4 -1l1 3l2 3l3 0l4 1l4 0l0 3l1 3l0 4l2 2l-3 0l-3 -1l-2 2l-3 1l-3 1l-2 2l1 4l1 3l-2 5l1 3l3 3l3 1l4 4l3 1l1 3l1 3l1 4l3 5l4 3l3 3l4 2l8 0l2 2l-3 2l1 3l6 2l6 3l4 3l5 2l4 4l1 4l0 3l-4 -1l-2 -5l-4 0l-3 -2l-3 0l-3 4l-1 4l1 3l4 2l1 5l0 3l-4 1l-2 2l0 3l-3 3l-1 3l-5 2l0 -4l2 -4l1 -3l3 -3l-2 -3l0 -3l-2 -4l-1 -3l-2 -2l-3 -1l-4 -2l0 -3l-2 -3l-3 1l-1 -3l-3 0l-2 -4l-2 -2l-3 0l-3 0l-3 -2l-7 -6l-4 -3l-2 -3l-3 -2l-2 -2l-2 -2l-2 -2l-2 -3l-1 -4l-2 -7l-2 -2l-4 -1l-4 -3l-4 -1l-4 1l-3 2l-2 3l-4 2l-1 -3l-3 -1l-4 -3l-1 -3l2 -2l-2 -2l-2 -3l3 -2l2 -2l-2 -3l-2 -3l3 -2zM322 327l-4 6l-1 3l0 3l1 3l-1 3l0 3l-4 0l-2 -2l-2 -2l-2 -2l-3 0l-3 -2l-3 -2l-3 -1l-3 -1l-2 -2l-1 -3l2 -2l3 0l2 -2l3 1l3 2l3 -1l3 1l3 -1l3 -2l3 1l4 -2zM259 290l2 5l-2 4l1 3l-1 9l0 3l-4 -1l-2 2l-2 2l-3 0l-1 -4l-1 -4l1 -3l-1 -3l1 -5l-1 -3l-2 -2l0 -3l3 1l4 -2l2 -2l2 -2l3 2l1 3zM535 393l1 3l0 3l-1 3l-3 1l0 4l-2 -2l-3 1l-1 4l0 3l2 2l-2 3l-1 3l4 -1l2 2l-1 4l-1 3l-1 4l0 4l-1 3l0 3l-1 3l-2 -4l-1 -5l-2 -3l-1 -6l-2 -5l3 -4l2 -5l1 -4l1 -6l1 -3l1 -4l3 0l2 -2l3 -2zM532 407l0 4l0 4l-1 3l-2 2l-4 1l1 -3l2 -2l-2 -2l0 -3l0 -3l2 -3l3 1zM82 95l-2 2l-2 2l-3 1l-2 3l2 3l3 2l3 0l2 -3l3 1l2 2l3 1l0 3l2 3l0 3l1 3l0 4l-1 3l-2 4l-1 3l-3 -1l-3 1l-4 1l-3 2l-3 1l-3 0l-2 2l-3 1l-6 2l-5 1l2 -3l-3 0l-3 1l2 -2l4 -2l-5 2l-3 -1l2 -3l3 -1l-4 0l2 -2l3 0l-1 -3l3 -1l3 -1l3 0l-4 0l-4 0l3 -2l0 -3l2 -2l3 0l-5 -2l-3 -1l-3 -1l2 -2l1 -3l-1 -3l-1 -3l3 -1l4 0l3 0l3 0l2 -2l3 -1l-5 -2l2 -2l2 -3l2 -2l4 -1l2 2l1 -3l3 -1l2 2l-2 2zM604 342l3 -2l3 -1l3 0l3 1l3 0l3 -1l1 4l3 -1l3 -1l1 5l2 2l0 3l3 6l3 1l2 2l4 0l-2 3l1 4l0 3l-4 4l-1 3l-2 2l1 3l-1 3l3 4l2 2l3 4l-1 3l3 1l2 2l2 2l4 3l3 0l1 4l2 3l1 5l-1 6l3 2l0 5l2 3l2 2l1 3l-3 0l-4 0l-3 -1l-3 1l-2 3l-1 4l-2 3l-2 3l-6 0l-5 0l-5 -1l-3 0l-4 -4l-3 -2l-3 -3l-4 -3l-3 -4l-3 -2l-3 -3l-3 -3l-2 -2l-3 -2l-2 -2l-4 -2l-5 -3l-3 -2l-5 -2l-3 0l-4 -1l-1 -4l-3 -1l0 -4l0 -3l-1 -3l-1 -3l3 -2l5 -3l3 -2l3 -2l3 -2l3 -2l3 -1l2 -3l1 -5l0 -4l1 -4l0 -3l-1 -4l1 -4l3 -3l4 -2l2 -3l2 -2zM749 482l-2 3l-3 0l-3 2l4 -3l3 -3zM725 339l3 0l3 -1l3 -1l1 -3l3 -3l3 -2l5 -1l3 1l2 -2l3 -1l3 1l3 0l1 3l4 1l3 1l3 2l3 0l3 0l4 2l2 3l2 2l4 2l2 3l2 2l4 0l4 0l1 3l0 4l0 3l1 3l0 3l-1 3l0 3l-1 3l-2 3l-2 2l2 2l-3 1l-1 6l0 3l3 1l0 3l-3 3l1 4l1 3l1 5l0 3l0 4l0 3l3 1l3 0l3 1l2 4l-1 3l-2 3l-3 4l-2 3l-3 4l2 2l2 2l2 3l1 4l2 3l2 4l3 1l3 1l3 2l0 3l1 3l0 4l0 3l4 0l1 3l0 3l-1 3l-4 0l-4 1l-2 2l-4 2l-1 4l-1 3l-1 6l-2 3l-3 -1l-5 -1l-1 -3l-5 1l-5 0l-4 0l-4 -2l-3 -1l-3 0l-3 -1l-7 -1l-1 -4l-1 -4l0 -5l-1 -3l-2 -2l-5 -2l-4 2l-3 1l-2 2l-4 2l-2 2l-3 1l-4 -3l-5 0l-3 -2l-2 -2l-3 -2l-3 -3l-3 -4l-3 -1l-3 -2l-3 0l-3 -4l-2 -4l-1 -4l-2 -2l0 -3l-2 -3l-1 -3l-2 -2l-1 -3l-2 -4l-5 2l-6 -4l2 -2l-3 1l0 4l-3 1l-3 -1l-1 -3l-2 -2l-1 -5l-2 -2l-1 -6l1 -5l-2 -4l-2 -3l-3 -2l-2 -2l-4 -3l-2 -2l-3 0l1 -3l-2 -3l-1 -3l-4 -4l0 -3l-1 -4l2 -2l1 -3l2 -3l3 -2l-2 -4l1 -3l2 -2l-4 0l-3 -2l-3 -1l-1 -5l-2 -2l-1 -3l-2 -4l0 -3l-2 -2l0 -3l-2 -3l-2 -2l2 -2l1 -3l-2 -3l0 -4l-1 -3l-1 -3l3 -1l1 -4l3 0l3 3l1 3l3 2l5 2l3 1l3 -1l3 -2l3 -1l2 -3l3 -2l3 -2l4 1l2 3l-3 1l2 3l-2 2l1 3l3 2l2 2l3 4l0 3l2 3l3 2l3 1l3 0l2 2l2 2l2 2l4 3l9 3l4 0l13 -4l4 -1l2 2l0 -5zM875 524l3 -1l3 0l0 -4l3 -1l3 0l3 0l2 2l3 0l3 -3l3 -1l1 3l2 -2l1 -3l0 -4l-2 -4l-1 -3l0 -3l-3 -1l-3 -3l0 -4l0 -4l-4 -2l-2 -2l0 -5l2 -2l2 -3l1 -3l2 -2l2 -2l3 2l2 2l3 -1l4 -1l3 -1l1 -3l2 -3l1 -3l4 -4l3 -2l3 -5l1 -3l1 -4l3 -2l3 -2l0 -3l3 -5l2 -2l3 -2l-2 -2l1 -3l-1 -4l2 -2l4 -3l3 -2l-3 -3l-3 0l-1 -4l-3 0l-1 -3l-2 -2l-1 -3l1 -3l-1 -3l2 -2l-3 -2l0 -3l-1 -3l2 -3l3 -1l3 1l4 1l3 0l4 2l3 -2l3 0l3 -2l3 -1l2 -2l2 -2l3 -2l3 -2l3 -1l0 3l2 5l1 4l4 2l3 2l-2 4l0 3l0 3l1 3l2 2l1 3l1 3l0 3l-2 3l-3 -1l-3 -2l0 3l2 5l0 3l1 3l0 4l3 -2l2 3l2 2l4 1l3 3l1 3l4 1l2 2l0 3l-2 2l-2 3l-1 3l0 3l-1 3l-1 3l2 3l3 0l2 2l0 3l0 3l0 3l0 3l0 3l0 3l0 4l0 3l0 3l0 -3l0 -3l0 -3l0 -4l0 -3l0 -3l0 -3l0 3l0 5l0 3l0 3l0 3l0 -3l0 -3l0 -3l0 -3l0 -3l0 -3l0 -3l0 -3l0 -3l0 -3l0 -3l0 3l0 -4l0 3l0 3l0 4l0 3l0 3l0 3l0 3l0 3l0 5l0 -3l0 3l0 3l0 3l0 3l0 4l0 3l0 3l0 3l0 3l0 3l0 5l0 3l0 3l0 3l0 3l0 -3l0 4l0 4l0 5l0 3l0 3l0 5l0 3l0 -4l0 -4l0 -3l0 -4l0 -4l0 -3l0 3l0 3l0 3l0 -4l0 -3l0 -3l0 -3l0 -3l0 -4l0 -3l0 -3l0 -3l0 -3l0 -6l0 -5l0 3l0 -3l0 -3l0 3l0 3l0 3l0 3l0 3l0 5l0 3l0 3l0 3l0 3l0 4l0 3l0 4l0 3l0 3l0 3l0 5l0 5l0 3l0 -4l0 4l0 -5l0 -3l0 3l0 3l0 4l0 4l0 4l0 3l0 3l0 3l0 3l0 3l0 3l0 7l0 3l0 3l0 4l0 5l0 4l0 4l0 3l0 4l0 3l0 3l0 3l0 5l-4 2l-3 6l0 4l0 4l1 3l0 3l-1 4l1 3l1 5l-1 -3l1 3l-3 1l-3 0l-3 0l-5 0l3 0l-3 0l-6 0l-3 0l-3 0l-3 0l-5 0l-5 0l-3 0l-4 0l-3 0l-3 0l-4 0l-3 -2l-1 -4l-1 -3l-1 -5l-1 -3l-2 -4l-2 -2l0 -3l-1 -3l-2 -3l-2 -5l-1 -5l-1 -10l-1 -5l-1 -5l-1 -3l0 -3l-1 -3l0 -3l1 -3l-2 -3l0 -3l-1 -5l0 -4l2 -7l0 -3l-1 -4l-2 -4l2 -3l3 -1l-5 0l0 -3l0 -4l-3 -1l-1 3l-1 3l2 2l-2 6l-6 4l-5 3l-4 0l-6 -5l-4 -6l-2 -2l-2 -2l-2 -2l-2 -3l0 -3l3 2l3 -2l3 -1l3 -1l2 -4l2 -2l-3 0l-4 2l-6 0l-5 -3l-2 -2l-2 -5l2 -2l2 -2l-3 2l-3 2l-1 -4zM391 187l2 2l3 2l3 1l-2 3l-3 1l-3 1l-2 2l-1 3l-1 3l-2 3l-2 3l-1 3l-2 2l-3 0l-2 2l-4 0l-3 0l-4 0l-3 1l-3 1l-3 1l-2 2l-3 0l-3 0l-3 -1l-3 -1l-2 -2l-2 -2l-2 -2l-3 -2l-2 -2l0 -3l-3 0l3 -2l2 -2l-1 -3l2 -2l-2 -2l3 0l3 0l0 -3l2 -2l3 2l3 2l4 0l3 -1l3 0l1 -3l5 -1l3 -2l3 2l3 -2l3 -3l5 -1l3 0l3 0l2 2l5 0zM375 325l2 3l-3 0l-1 -3zM369 310l-3 -2l-1 -3l3 0l-1 3l2 2zM404 317l2 2l3 1l3 1l1 4l1 3l3 0l-2 2l-2 -2l-1 -3l-3 -1l-2 -2l-3 -2l-2 -2l-3 0l3 -2zM436 312l2 3l-5 1l1 -3l-2 2l-2 -2l3 -1l3 0zM451 358l-1 -3l2 -2l2 -2l0 3l-2 3zM409 364l3 -1l1 3l3 0l5 -1l3 1l3 0l2 2l3 0l3 -1l-1 3l-4 1l-3 0l-4 1l-4 0l-2 -3l-7 -1l-3 0l-1 -3l2 -2zM435 279l3 1l0 3l-3 2l0 3l-2 3l-3 0l-4 -1l-4 -1l-3 2l-3 -2l-3 3l-3 0l-2 2l1 3l4 1l-3 -1l0 3l0 3l-3 -4l-3 0l3 4l-3 -1l-1 -3l-4 -2l0 -3l-3 1l0 4l0 3l2 3l2 3l2 3l1 3l-3 -3l-1 3l2 2l-3 1l-3 1l3 1l3 2l3 2l3 2l3 1l1 4l0 3l-3 -2l-2 -2l-4 1l0 3l2 2l-1 3l-3 -1l-2 -2l0 3l2 5l1 3l0 4l-3 -2l-3 1l-3 -4l-2 -2l-1 3l-4 -4l1 -3l-1 -3l-3 -2l-2 -2l2 -3l2 -2l3 -1l5 1l3 1l3 2l3 -1l-2 -2l-3 -2l-3 0l-4 -1l-3 1l-3 -1l-3 0l-1 -3l-2 -2l3 -1l-2 -2l-4 -2l-2 -2l-2 -3l-2 -3l3 1l1 -3l1 -3l3 -2l1 -3l2 -2l0 -3l3 -1l3 0l4 -3l3 -1l3 1l2 -3l3 0l3 -1l3 0l3 -1l4 -1l3 0l3 3l3 0l3 1l3 -1l3 0l2 -3l1 -3zM258 199l-3 -2l-4 0l-3 -2l-2 2l-3 1l-4 0l-2 -3l1 -3l1 -3l1 -4l3 -5l-3 -2l-3 -1l-3 0l-3 -1l-4 -1l-2 -3l1 -3l-2 -2l-2 -3l3 -3l-1 -3l-2 -2l0 -4l0 -3l1 -3l-1 -3l-1 -3l3 -1l3 0l2 -2l2 -2l1 -3l-3 -1l3 -2l1 -4l1 -4l-2 -2l1 -3l2 -2l3 0l4 0l2 2l3 0l1 -3l4 -1l3 0l4 3l-3 -3l-3 -1l-1 -5l-3 0l2 -2l-1 -4l2 -2l3 0l3 0l4 1l1 3l2 2l6 2l3 -1l-2 4l3 1l3 1l3 -3l4 0l2 -2l3 -2l4 0l2 2l3 2l3 0l2 4l4 2l2 6l-2 3l0 4l3 2l0 3l2 3l0 3l-1 3l1 3l2 2l0 4l-1 3l-3 -1l-3 -1l-2 3l-4 1l-3 2l-4 1l-3 1l-3 1l-2 2l1 3l2 2l-1 3l2 2l2 2l3 2l2 2l3 1l2 2l0 3l-3 0l-1 3l-3 1l-2 2l-1 3l1 3l1 3l-3 -1l-3 -1l-3 -1l-5 2l-3 1l-3 1l-3 -1l-4 0l-2 3l-2 -2l-3 -1l-3 0zM302 105l-3 2l-2 -2l0 -3l2 -2l2 2l1 3zM615 287l-3 -2l-2 -3l-3 -1l-2 2l-3 -1l-3 0l-3 0l1 -3l0 -3l-1 -3l0 -4l-1 -3l-4 -3l-3 -3l-4 -1l-3 -2l-2 -2l2 -2l3 1l3 0l3 2l3 1l3 1l5 0l3 0l3 1l3 1l4 2l3 2l2 3l3 -1l3 -1l3 0l3 0l3 1l4 1l1 3l0 3l3 1l3 1l1 3l-2 2l2 2l3 2l-1 3l-3 -1l-3 0l-3 -1l-3 -2l-4 2l-5 1l-4 0l-3 0l-3 1zM258 264l0 3l0 6l-1 3l0 3l-2 3l-3 -1l-2 -3l-1 -3l-1 -3l1 -3l2 -3l3 -1l2 -3l2 2zM238 198l-2 2l-3 0l-2 2l-3 3l-2 2l-2 3l-2 2l0 3l-1 3l3 -2l2 -2l3 0l0 4l2 2l-2 3l2 3l2 2l-1 3l-3 1l0 3l3 1l-1 3l-1 3l3 3l5 0l0 3l-1 3l-3 1l-4 3l-2 2l-2 2l-4 1l-3 0l-4 -2l-2 -2l-3 -1l-3 1l-3 -1l-3 -2l-3 2l-6 3l-2 4l0 5l2 2l-3 -1l-3 1l-3 0l-3 1l-3 -1l-3 -3l-3 -1l-5 -2l-3 2l-3 0l-3 0l-2 -2l-3 1l-2 -2l-4 -1l-3 0l0 -3l-3 -1l2 -4l2 -6l1 -7l2 -2l-2 -7l2 -5l2 2l2 4l-1 -4l-4 -4l0 -3l0 -4l-2 -2l-5 -2l-1 -3l-2 -2l0 -3l0 -3l3 1l-6 -1l-1 -3l-3 0l-3 -1l-3 -2l-6 -1l-4 0l-2 -2l-2 -2l3 0l-2 -2l3 -1l-3 -1l-2 -2l7 -2l4 0l2 -2l3 0l5 3l3 -1l4 1l3 0l4 0l-2 -3l0 -5l-2 -4l-1 -3l3 0l3 0l1 3l3 1l4 1l4 1l3 -2l3 -1l-3 0l1 -3l4 -2l4 -1l3 -1l3 -3l1 -7l2 -3l7 -2l1 3l2 2l3 -1l2 2l2 2l2 2l3 0l3 2l0 3l4 0l2 -2l1 3l2 2l3 2l2 2l3 -1l2 2l3 -1l3 1l2 3l3 0l3 1l3 1l4 0l2 2l-3 3l-1 4l-2 3l0 4l-1 3zM368 23l3 1l-2 2l-3 0l1 -3zM412 -8l-4 0l-3 0l-3 0l-4 0l-5 0l-4 0l-4 0l-3 0l-4 0l-3 0l3 0l4 0l3 0l3 0l5 0l5 0l3 0l4 0l3 0l4 0l4 0l3 0l3 0l3 0l3 0l3 0l4 0l3 0l3 0l3 0l4 0l3 0l4 0l6 0l4 0l-3 0l-3 0l5 0l3 0l5 0l-3 0l-3 0l3 0l3 0l3 0l-3 0l-3 0l5 0l4 0l-4 0l4 0l3 0l3 0l3 0l3 0l-3 0l-3 4l-4 2l-3 2l-3 3l-4 3l-2 2l-2 2l-3 1l-3 2l-3 2l-3 2l-3 3l-3 1l-3 -1l-3 1l-3 0l-3 0l-4 0l-2 2l-3 0l-3 1l-3 1l-4 1l-3 1l-3 0l-3 1l-3 0l-3 2l0 -3l-3 -2l-2 2l-3 0l2 -3l-4 -2l-3 -1l-2 -2l-3 1l-1 -3l0 -3l1 -3l0 -3l1 -3l-2 -4l-1 -3l0 -3l-2 -2l4 -1l3 0l4 0l3 0l3 0l3 0l3 0l3 0l3 0l4 0l3 0l4 0l3 0l-4 0l-3 0l-3 0zM529 668l-3 0l-3 0l-4 0l-3 0l-4 0l-3 0l-3 0l4 0l4 0l3 0l3 0l3 0l3 0l3 0l4 0l4 0l3 0l1 -3l1 -3l0 -6l3 -1l3 1l1 -3l4 4l2 -4l1 -3l3 0l3 3l4 0l3 -2l2 2l3 -1l4 2l3 0l3 2l3 2l2 2l2 3l2 3l3 2l3 0l3 0l-3 0l3 0l3 0l3 0l3 0l3 0l3 0l4 0l3 0l4 0l6 0l3 0l4 0l4 0l4 0l3 0l4 0l3 0l4 0l-3 0l-3 0l-3 0l-5 0l-5 0l-3 0l-3 0l-5 0l-5 0l-3 0l-4 0l-4 0l-3 0l-3 0l-3 0l-4 0l-4 0l-3 0l-4 0l-3 0l-3 0l-3 0l-5 0l-4 0l-4 0l-3 0l-4 0l-4 0l-3 0l-4 0l-4 0l-3 0l-3 0l-3 0l-3 0l-3 0l-3 0zM446 61l-4 0l-5 0l-3 -1l-2 -2l-3 -1l-4 -3l-3 0l-3 1l-4 1l1 -5l-3 0l-5 -1l-2 -3l1 -3l-2 -2l0 -3l3 -2l3 0l4 -2l5 -1l6 0l3 -1l7 1l5 1l5 0l5 1l3 0l-3 3l-2 3l-2 2l1 5l-1 3l2 3l-1 3l-2 2zM396 46l4 1l3 1l-3 2l-3 1l-4 1l-2 3l-1 -3l-2 -4l3 0l3 -1zM399 44l-3 1l-2 -2l-3 0l3 -1l2 -2l3 1l1 3zM542 656l0 -4l0 -3l-1 -5l2 -3l1 -5l1 -4l1 -4l0 -4l1 -3l0 -3l3 0l3 -4l3 -2l3 -1l3 -2l1 -4l4 7l2 5l1 5l1 7l1 4l2 6l2 4l1 -3l3 3l1 3l3 0l3 3l4 2l4 5l1 4l7 5l1 3l4 0l3 0l-3 0l-3 0l-3 0l-3 0l-3 0l-3 -2l-2 -3l-2 -3l-2 -2l-3 -2l-3 -2l-3 0l-3 -2l-4 1l-2 -2l-3 2l-3 1l-3 -3l-2 -2l-3 4l-2 5l-2 -4l-3 1l-3 0l-3 1zM546 550l-3 0l-4 0l-3 0l-4 0l-3 0l-4 0l-3 0l-4 0l-3 0l-4 0l-3 0l-3 0l-4 0l-3 0l-4 0l-3 0l-2 -2l-2 2l-6 0l-4 0l-4 0l-4 0l-4 0l-4 0l-4 0l-4 0l-4 0l-4 0l-4 0l-4 0l-4 0l-4 0l-4 0l-4 0l0 -3l0 -3l0 -4l0 -3l0 -3l0 -3l0 -3l0 -3l0 -3l0 -3l0 -3l0 -3l0 -3l0 -3l0 -4l0 -3l0 -3l0 -3l0 -3l0 -3l0 -3l0 -3l0 -3l0 -3l0 -3l0 -4l0 -3l0 -3l0 -3l0 -3l0 -3l0 -3l-1 -3l-1 -6l-1 -4l2 -5l1 -3l-1 -3l0 -4l0 -3l2 -2l3 1l5 -2l6 2l4 1l5 1l3 2l3 0l7 2l3 2l3 1l4 -1l5 -4l3 -1l2 -2l5 -2l-3 2l3 0l2 -2l5 2l3 -1l3 2l-2 -2l-2 3l3 1l3 0l2 2l4 -1l3 0l5 0l3 -1l3 -1l1 4l2 6l2 5l1 3l1 6l-1 4l-2 7l-2 5l0 4l-1 3l-3 1l-3 -3l-1 -3l-2 -2l-2 -3l-1 -5l-3 -4l-1 -3l-1 -5l-3 1l0 3l2 2l0 3l0 3l2 2l1 3l3 5l2 2l2 3l0 4l2 3l2 4l0 6l4 8l3 5l1 3l2 5l3 9l2 2l3 3l2 2l-3 0l0 7l2 7l2 2l3 2l2 3l5 4zM-8 -8l3 0l3 0l10 0l6 0l8 0l5 0l3 0l3 0l3 0l-7 0l-9 0l-4 0l-3 0l-5 0l-3 0l3 0l-3 0l-7 0l-4 0l-2 2l0 4l0 3l0 3l0 5l0 4l0 4l0 3l0 3l0 4l0 3l0 -3l0 -3l0 3l0 -4l0 -3l0 -3l0 -3l0 -3l0 3l0 3l0 -3l0 -3l0 -3l0 -3l0 -3l0 -3l0 -3l0 -3zM88 -3l-2 2l-4 -3l3 0l3 1zM290 85l-1 3l-3 2l3 2l-4 2l0 3l-2 2l-2 -2l0 -3l-3 -1l-3 -1l0 -3l-2 -3l3 0l3 -2l2 2l3 -2l3 -3l3 0l0 3zM260 99l-4 0l-4 -1l-3 0l-1 -4l1 -4l-3 -1l-3 -1l1 -4l-1 -3l0 -3l1 -4l3 1l3 0l1 -3l3 0l1 -3l-4 1l-3 3l-3 -1l2 -3l2 -2l3 0l4 0l5 -5l5 -2l3 -1l0 4l-1 3l-2 3l0 3l1 3l5 0l1 3l-3 2l-3 -1l-1 3l-2 2l-2 2l-2 3l0 4l-2 2l2 2zM270 88l2 4l-2 3l-4 0l-3 -1l-1 -3l4 -3l4 0zM277 98l4 0l1 3l-4 0l-4 -2l2 -2zM356 172l-3 0l-2 2l-2 2l-2 2l-2 2l-3 1l-3 0l-2 2l-3 -1l-3 -1l-4 1l-3 -1l-4 -2l-3 0l-2 2l-2 2l-3 1l-3 0l-3 -2l-2 -2l-3 -1l-2 -2l-2 -2l-3 -1l-2 -3l-2 -3l2 -2l-3 -2l-2 -3l3 0l2 -2l3 0l4 -1l2 -2l3 -1l3 -1l4 -1l2 -2l2 3l3 -1l3 -1l2 2l3 1l3 1l3 0l-1 3l2 2l2 2l3 -1l-1 -3l3 1l3 1l3 0l0 3l3 1l3 0l3 1l3 4zM516 370l-3 0l-3 1l-2 -2l-3 0l-3 0l3 -2l4 -1l3 0l4 -2l3 -1l3 -1l-7 5l1 3zM502 369l3 0l3 0l2 2l3 0l3 -1l-3 1l-2 3l-3 1l-2 2l-3 -1l-3 -1l-2 -3l2 -2zM301 226l3 2l3 -1l3 0l2 -2l2 2l3 0l2 -2l2 -2l2 -2l-1 -3l3 -2l4 -1l2 -2l3 1l2 2l2 2l2 2l3 1l2 2l5 0l3 0l2 -2l2 2l0 3l2 3l3 1l-3 1l0 3l-3 1l-2 -2l-3 -1l-4 0l-3 -1l-4 0l-4 -1l-4 1l-2 2l-3 -2l-3 0l0 5l3 4l1 3l1 3l4 3l3 3l2 2l2 2l3 4l-3 0l-2 -2l-2 -2l-3 -1l-3 -1l-3 0l-3 -3l-3 -2l-3 -4l2 -2l-4 -4l-1 -3l-1 -4l-3 -2l-3 0l-2 4l-2 2l-3 -4l-1 -5zM318 243l-2 -2l-3 -3l3 2l2 3zM352 267l-3 -1l-3 -2l-3 -1l-3 -1l-3 -1l7 2l3 1l4 3zM1008 556l0 -4l0 -3l0 -3l0 -3l0 -3l0 -3l0 -3l0 -3l0 3l0 3l0 3l0 3l0 -3l0 3l0 3l0 3l0 3l0 3l0 3l0 3l0 -3l0 -3l0 -3l0 -3l0 -3l0 -3l0 -3l0 -3l0 -3l0 -3l0 -4l0 -3l0 -3l0 3l0 -4l0 -3l0 -4l0 -3l0 -4l0 -3l0 -3l0 -3l0 -3l0 -3l0 -4l0 -3l0 -4l0 -5l0 -3l0 -4l0 -3l0 -3l0 -3l0 -3l0 -3l0 -3l0 -3l0 4l0 3l0 3l0 3l0 3l0 3l0 3l0 -3l0 -3l0 3l0 3l0 4l0 4l0 -3l0 -4l0 -3l0 3l0 -3l0 -3l0 -3l0 -3l0 -3l0 -4l0 -4l0 -3l0 -3l0 -3l0 -3l0 3l0 -3l-2 -2l-3 -1l-1 -3l-3 -2l-3 -1l-3 -1l-2 -5l-3 1l-1 -3l-1 -3l1 -3l-3 -3l-1 -3l3 -2l2 3l3 -1l1 -3l0 -3l-1 -3l-1 -3l-3 -2l0 -5l0 -3l2 -2l-1 -3l-4 -2l-3 -3l-1 -5l-1 -4l-3 -1l-3 0l-4 -1l-3 -1l-2 -2l-3 0l-2 -2l-2 -2l1 -4l-1 -3l-3 -2l-3 -2l-3 -1l-3 -1l-3 0l1 -3l3 0l3 -2l-2 -2l0 -3l-1 -4l-1 -3l0 -3l-3 -1l-3 -1l-4 1l-1 -3l1 -3l-2 -3l0 -3l3 -1l0 -3l0 -3l2 -2l3 -1l3 -2l2 -2l3 0l4 -2l1 4l3 0l3 -1l3 -1l1 -3l3 -4l3 -1l5 1l3 -1l5 -3l2 -3l6 -3l4 -2l3 -1l4 -2l1 -3l-1 -3l0 -3l2 -2l0 -3l4 0l0 -3l-1 -4l-2 -4l-1 -3l0 -3l0 -3l1 -3l-4 -1l-2 -2l3 -1l3 -1l3 0l0 -3l0 3l0 -4l0 -3l0 -3l0 -4l0 -3l0 -4l0 -4l0 -3l0 3l0 -3l0 -3l0 -3l0 -4l0 -4l0 -3l0 -3l0 -3l0 -3l0 3l0 3l0 3l0 3l0 3l0 3l0 3l0 3l0 3l0 3l0 3l0 4l0 3l0 3l0 3l0 3l0 3l0 3l0 3l0 4l0 3l0 3l0 3l0 3l0 4l0 4l0 3l0 3l0 5l0 3l0 3l0 3l0 -3l0 -4l0 -3l0 -3l0 -3l0 -3l0 -3l0 -3l0 -3l0 -3l0 -3l0 -3l0 -3l0 -4l0 -3l0 3l0 -3l0 -3l0 -3l0 -3l0 -3l0 -3l0 -3l0 -3l0 -3l0 3l0 -3l0 -3l0 -3l0 -3l0 -3l0 -4l0 3l0 -3l0 -3l0 -4l0 -3l0 -3l0 -4l0 -3l0 -4l0 3l0 -3l0 -4l0 -4l0 -3l0 -3l0 -3l0 -3l0 -4l0 -4l0 -3l0 -3l0 -3l0 -3l0 -3l0 -5l0 -3l0 3l0 3l0 3l0 3l0 3l0 3l0 4l0 3l0 3l0 3l0 5l0 3l0 3l0 4l0 3l0 3l0 3l0 3l0 3l0 3l0 4l0 3l0 3l0 3l0 -3l0 -3l0 3l0 3l0 3l0 3l0 3l0 3l0 3l0 3l0 3l0 3l0 3l0 3l0 4l0 3l0 -3l0 3l0 3l0 3l0 3l0 5l0 5l0 3l0 4l0 3l0 3l0 3l0 -4l0 4l0 3l0 3l0 3l0 3l0 3l0 -3l0 3l0 3l0 3l0 3l0 3l0 3l0 3l0 3l0 3l0 5l0 3l0 3l0 3l0 -3l0 -4l0 -3l0 -3l0 -3l0 -4l0 -3l0 -3l0 -3l0 3l0 5l0 3l0 4l0 4l0 3l0 5l0 3l0 3l0 3l0 4l0 3l0 3l0 3l0 -3l0 -3l0 3l0 4l0 3l0 3l0 3l0 3l0 3l0 3l0 3l0 3l0 4l0 4l0 4l0 3l0 7l0 3l0 5l0 3l0 3l0 3l0 3l0 3l0 4l0 -3l0 3l0 3l0 5l0 3l0 3l0 4l0 3l0 3l0 3l0 4l0 7l0 3l0 3l0 4l0 3l0 3l0 3l0 3l0 3l0 3l0 3l0 3l0 -3l0 3l0 3l0 4l0 3l0 3l0 3l0 3l0 3l0 3l0 3l0 3l0 4l0 3l0 3l0 3l0 3l0 3l0 3l0 3l0 -3l0 -3l0 3l0 5l0 3l0 3l0 3l0 -3l0 3l0 3l0 4l0 3l0 3l0 4l0 3l0 -3l0 -3l0 -4l0 -3l0 -3l0 -3l0 3l0 -3l0 -3l0 3zM410 584l0 6l0 6l0 6l0 7l0 6l0 6l0 6l0 6l0 3l-3 0l-4 0l-3 1l0 5l-1 3l-2 2l0 3l-3 1l0 3l1 3l-2 2l-2 2l0 4l1 3l-3 0l3 0l3 0l3 0l-3 0l-3 0l-3 0l-3 0l-3 0l-4 0l-4 0l-3 0l-3 0l-4 0l-3 0l-3 0l-4 0l-3 0l-5 0l-3 0l-3 0l-3 0l-3 0l-3 0l-4 0l-3 0l-3 0l-3 0l-4 0l-4 0l-3 0l-3 0l3 0l4 0l5 0l4 0l-3 0l-3 0l-3 0l-4 0l-3 0l-4 -4l-1 -6l-1 -4l2 -3l2 -5l4 -7l2 -3l4 -6l5 -7l3 -3l0 -7l1 -8l0 -5l0 -7l1 -5l0 -4l1 -6l2 -5l-3 -5l-2 -3l-2 -7l-1 -3l0 -4l-1 -7l-1 -8l3 -2l3 -2l4 -2l4 2l5 3l5 4l5 3l5 3l5 3l5 4l5 3l5 3l5 3l5 4l5 3l5 3l5 3l5 4l5 3l5 3zM167 668l-3 0l-4 0l-3 0l-3 0l-3 0l-3 0l-3 0l-3 0l-4 0l-4 0l-5 0l-3 0l-3 0l-3 0l-3 0l-3 0l-3 0l-3 0l-3 0l-4 0l3 0l3 0l3 0l3 0l3 0l4 0l3 0l0 -3l3 0l2 -5l3 -4l5 1l1 -4l3 0l2 -2l3 -2l3 -2l2 -2l3 0l5 1l2 2l0 3l1 3l1 4l1 4l2 2l3 1l2 3l4 0l3 0l3 0l3 0l-4 0l-4 0l-3 0l-3 0zM453 275l-3 0l-3 1l-2 -2l-3 0l-3 1l-2 2l-2 2l-3 0l1 4l-4 1l-4 1l-3 -1l-3 -1l-3 -2l-3 0l-3 1l-3 1l-3 0l-4 1l-1 -4l0 -3l-1 -3l-3 -1l-2 -2l2 -2l-1 -3l0 -3l3 0l2 -2l0 -3l-2 -2l-2 -2l-1 -3l0 -3l2 -2l3 0l-1 3l4 0l4 0l4 1l3 1l6 0l4 1l3 0l4 -1l4 -4l3 -1l3 -1l3 0l4 2l3 1l3 2l4 1l2 3l-3 1l-3 2l-1 4l-1 4l-4 3l3 2l2 4zM360 254l-3 0l1 3l-3 0l-1 4l-2 2l1 3l-4 -1l-3 -2l-3 -1l-2 -4l-1 -3l-4 -3l-2 -2l-3 -3l-2 -3l-1 -3l-3 -3l-1 -5l2 -2l2 2l3 -2l4 0l3 0l4 1l3 1l4 -1l3 0l3 1l2 2l3 0l1 3l-2 2l0 3l3 2l2 2l-3 0l2 4l-2 2zM202 146l3 -1l3 -1l2 2l3 1l3 0l2 2l0 3l1 3l3 1l2 2l1 3l-3 2l-3 2l-1 3l2 2l-3 1l-3 -1l-3 -2l-2 -2l0 -3l-2 2l-3 1l-3 -1l1 -3l-2 -2l-3 0l-3 -2l-2 -2l-2 -2l-3 1l-2 -2l0 -3l4 -2l3 -2l2 2l3 -1l3 1l2 -2zM492 136l-4 0l-3 0l-2 2l-2 2l-2 3l1 3l-3 1l-2 -2l-4 0l-3 1l-2 -2l-3 -1l-3 2l-2 -2l-3 0l-4 0l-2 2l-2 -2l-3 -2l-4 0l-4 -1l-5 -1l-4 -1l-3 0l-3 1l-3 0l-4 0l-2 3l-3 1l-3 0l1 -3l0 -3l-2 -2l-3 -1l2 -4l5 -2l1 -3l-1 -3l-3 -7l-1 -4l3 0l3 0l3 0l3 -1l2 -2l3 0l2 -2l3 1l1 -3l1 -3l0 -3l4 -1l1 -3l4 0l2 -2l-3 0l1 -3l2 -2l2 -2l3 0l3 0l4 -4l4 1l3 -1l2 2l3 -1l3 1l1 3l3 0l3 -1l4 0l2 2l3 1l0 3l1 3l-1 3l1 3l2 2l1 3l4 3l2 2l-1 3l3 0l4 1l3 4l-2 2l-3 2l-4 0l-3 -1l-3 2l2 3l1 3l0 3l2 4zM630 307l3 -1l2 2l3 0l2 2l2 3l1 3l-5 0l-3 -2l-2 -2l-3 -5zM672 324l-3 0l-2 -3l-4 -2l2 -2l-1 -3l2 -3l-1 -3l-3 -1l-3 2l-3 1l-3 3l-3 2l-2 2l-2 -3l1 -3l0 -3l-3 0l-2 -2l-2 -2l-2 -2l3 0l1 -3l-3 -1l-3 -3l2 -4l-2 -2l-3 -1l-1 -3l2 -2l5 1l2 2l3 0l3 2l2 -2l-2 -3l-2 -3l1 -3l3 0l3 2l2 2l1 3l3 1l3 1l2 -2l2 -2l2 -2l2 -2l3 2l2 3l1 3l3 5l3 3l3 0l3 2l-4 2l-3 2l-2 5l-1 3l1 3l-2 4l-3 0l-1 3l0 6zM258 202l0 -3l3 -1l3 2l2 2l2 -3l3 0l2 2l3 -1l3 -1l7 -1l3 -1l3 0l2 3l1 -3l-1 -3l-2 -3l4 -2l3 -2l1 -3l3 0l3 0l3 0l4 0l2 -2l0 -3l3 0l4 1l5 2l3 0l3 0l3 1l-1 3l2 4l1 3l-1 3l-3 1l-3 0l2 2l-2 2l0 3l-2 3l-3 2l-4 1l-4 1l-3 0l-2 2l-3 1l-4 0l-3 -1l-3 -1l-4 0l-3 -1l-4 0l-2 -3l-1 -3l-4 1l-3 0l-3 0l-2 2l-3 1l-3 -1l-3 0l-3 -1l-3 -2l-1 -3zM629 306l-2 -2l-2 -2l-4 0l-3 -1l-1 -4l1 -3l0 -3l-2 -3l3 -1l3 -1l4 0l4 0l3 0l2 2l2 2l-1 3l2 4l4 2l-1 3l-3 0l2 2l2 2l2 2l3 0l-1 3l2 2l-1 3l-3 2l-2 -4l-2 -3l-1 -3l-3 1l-3 -1l-3 -2zM248 344l-1 3l-2 3l0 5l0 4l0 3l0 3l1 3l-1 3l0 4l-2 2l-3 2l-3 4l0 4l1 4l1 3l2 2l2 2l2 5l3 3l3 3l2 2l1 3l0 3l1 4l1 3l0 4l1 3l1 6l-1 3l1 3l2 3l1 5l1 3l-1 6l1 7l0 3l-1 3l-1 3l1 4l1 3l0 3l-2 3l-3 2l0 3l2 2l2 4l2 4l0 4l1 3l2 3l2 2l7 0l4 2l3 6l2 5l-6 4l-5 4l-5 4l-6 5l-5 4l-6 4l-5 4l-6 4l-3 3l-3 3l-3 3l-2 3l-2 2l-3 3l-2 2l-3 3l-5 2l-3 1l-4 1l-5 1l-3 1l-5 1l-3 -1l0 -3l1 -3l0 -3l-3 -3l-3 -1l-3 -1l-2 -2l-3 -1l-3 -2l-4 -4l-1 -3l-2 -3l-3 -3l-3 -3l-4 -3l-3 -3l-4 -3l-3 -3l-4 -3l-3 -3l-4 -3l-3 -3l-4 -3l-3 -3l-3 -3l-4 -3l-3 -2l-4 -3l-3 -3l-3 -3l-5 -3l-2 -2l-2 -2l-4 -3l-4 -3l-4 -3l-4 -3l-4 -3l-4 -3l-4 -3l-4 -3l0 -3l0 -5l0 -3l0 -3l0 -4l2 -2l2 -3l4 -2l3 -3l3 -1l2 -2l4 -1l3 0l0 -3l3 0l3 0l4 -1l3 -2l3 -4l3 -3l4 -2l4 -3l3 0l0 -3l-1 -3l-1 -3l2 -2l3 0l4 -1l1 -3l4 -1l3 0l5 0l3 0l3 0l0 -3l2 -2l-2 -2l-2 -3l-1 -4l-2 -3l1 -3l-1 -3l0 -3l0 -3l-1 -3l-1 -3l0 -3l-3 -2l3 -1l4 -3l3 -3l3 -2l5 -3l3 1l4 -4l3 -2l3 -2l5 -2l8 -1l4 0l5 -2l7 -1l3 -1l10 0l5 3l5 -2l4 -1l2 -2l3 0l4 2l3 -1l4 0l3 2l7 -2zM361 277l1 -3l-1 -3l2 -2l2 -3l2 2l3 0l2 3l2 4l0 4l0 4l0 4l2 3l3 0l0 3l-1 3l-2 2l-1 3l-3 1l0 3l-2 2l-2 -2l-1 -3l-4 -3l-2 -2l1 -3l0 -3l1 -4l0 -3l0 -3l1 -3l-3 -1zM858 339l3 -1l3 1l3 2l3 -1l2 3l4 0l3 -2l3 -1l3 0l2 2l2 -2l0 -3l2 -2l3 0l3 1l0 -3l1 -3l2 -3l2 -3l4 0l2 2l0 4l3 1l0 4l-1 3l0 4l1 4l2 2l4 -3l3 -1l3 -1l2 -3l4 -2l4 -1l0 3l3 0l3 -1l3 -1l3 1l-4 2l2 2l-4 2l-3 1l-5 -1l-3 0l-4 1l-3 0l-3 1l-3 3l-3 1l-2 2l-2 3l1 3l2 4l0 3l1 3l-2 2l-2 2l-2 2l-1 3l1 3l0 3l-4 1l-3 0l-4 -1l-2 2l2 3l2 3l0 3l-3 2l-4 1l-1 3l-1 3l-1 5l0 4l-2 3l-3 1l-2 -2l-3 0l-3 2l-3 1l-2 2l-1 3l-4 0l-3 -1l-2 3l-2 2l-1 4l0 4l-1 3l1 3l-4 2l-3 1l-5 2l-3 0l-4 0l-3 0l-3 2l-4 -1l-11 1l-5 -2l-5 -2l-4 -1l-4 -1l3 -4l2 -3l3 -4l2 -3l1 -3l-1 -3l-4 -2l-3 0l-3 -1l0 -3l0 -4l0 -3l-1 -5l-1 -3l-1 -3l2 -4l2 -2l-3 -1l-1 -4l0 -4l4 -3l-2 -2l2 -2l2 -3l0 -3l0 -3l2 -3l3 1l3 0l4 2l3 1l4 -2l2 -3l0 -3l4 -2l4 -1l3 -1l2 -2l3 -3l1 -4l0 -3l3 -3l3 -1l3 0l1 -3l3 0l4 1zM969 370l-1 -4l-2 -3l3 0l3 1l4 0l-2 2l-2 2l-3 2z"/><path fill="#45342a" stroke="#d2ae5a" stroke-width="0.7" stroke-linejoin="round" d="M595 281l3 2l3 -1l3 0l3 -1l3 1l2 2l2 2l2 2l2 3l0 3l-1 3l1 3l2 2l3 0l4 2l2 2l-3 0l-1 4l-3 0l0 3l1 3l1 4l0 4l1 3l-2 3l2 2l2 2l0 3l2 2l0 3l-3 0l-2 2l-1 -3l-2 -2l-3 1l-4 -1l-4 0l-3 1l-2 2l-2 -2l-4 1l-4 1l-3 1l-3 -1l-3 0l-7 4l-3 1l-4 1l-5 0l-3 -2l-3 -1l-4 1l-4 2l-4 0l-4 -2l-2 2l0 3l1 3l-3 0l0 3l-3 3l-2 -2l0 -3l0 -3l3 -4l-2 -3l-2 2l-3 2l-4 0l-2 -2l-3 -1l-4 3l-3 4l-3 2l-3 0l-4 1l-3 1l-3 -1l-2 -2l-2 -3l-4 -2l-4 -3l-4 0l-4 -1l0 5l-1 3l-3 0l-5 2l-4 -1l-2 -2l-1 -3l-3 -1l-3 -2l-3 2l-4 -1l-3 1l4 -2l3 -2l-6 -1l-3 0l2 -2l-2 -2l-2 -2l-1 -3l2 -3l-3 -2l-3 -2l-3 0l0 -3l0 -3l2 2l3 2l3 -1l-3 -1l-1 -3l2 -2l-2 -2l-1 -4l2 -3l-4 0l-4 1l0 -3l0 -3l2 -2l2 -2l2 -3l3 0l3 -1l2 2l3 0l0 -3l3 1l3 1l3 0l4 0l-2 -2l3 -2l5 0l3 -1l-5 -1l-3 -2l0 -3l3 -1l6 1l4 0l5 1l5 0l2 -3l7 -4l4 -3l5 -1l3 -1l10 0l6 0l4 -1l1 4l3 2l4 -1l3 4l2 2l3 -1l3 1l5 2l3 0l2 2l5 1l5 -2l6 -1l4 2l3 0l6 -2l3 -1l5 -3zM453 275l0 4l2 2l8 4l0 3l-7 0l-4 1l-5 0l-2 4l-3 2l-5 4l-2 2l-1 -3l2 -2l3 -1l-4 -1l-3 -1l2 -3l1 -3l2 -3l1 -4l-3 -1l2 -2l2 -2l3 -1l3 0l2 2l3 -1l3 0z"/></svg>